<svg width="7" height="9" viewBox="0 0 7 9" fill="none" xmlns="http://www.w3.org/2000/svg">
<path d="M4.94947 0.0495543C4.94947 0.0495543 4.20608 2.0867 4.16126 2.59106C4.11645 3.09543 3.69279 4.00731 4.99877 4.69391C4.99877 4.69391 6.52317 5.42389 6.95203 5.51527C6.95203 5.51527 5.32888 4.94594 4.87154 4.90122C4.41419 4.8565 3.51771 4.65036 2.72848 6.46771L1.95036 8.47269C1.95036 8.47269 2.67466 6.33869 2.74712 5.89768C2.81958 5.45668 3.17551 4.42468 1.79094 3.76378L0.0558409 3.03929C0.0558409 3.03929 1.46318 3.58643 2.33878 3.65553C3.21439 3.72463 3.95221 2.7911 4.94947 0.0495543Z" fill="#33B568" stroke="#33B568" stroke-width="0.275772" stroke-miterlimit="10"/>
</svg>
