<svg width="128" height="30" viewBox="0 0 128 30" fill="none" xmlns="http://www.w3.org/2000/svg">
<path d="M2.20704 4.66274H0.291712C0.130604 4.66274 0 4.79452 0 4.95708L0 6.88966C0 7.05222 0.130604 7.184 0.291712 7.184H2.20704C2.36814 7.184 2.49875 7.05222 2.49875 6.88966V4.95708C2.49875 4.79452 2.36814 4.66274 2.20704 4.66274Z" fill="white"/>
<path d="M5.66314 4.66274H3.79963C3.63843 4.66274 3.50792 4.79442 3.50792 4.95708V6.88966C3.50792 7.05232 3.63843 7.184 3.79963 7.184H5.66314C5.85314 7.184 6.00667 7.02909 6.00667 6.83738V5.0113C6.00667 4.81959 5.85314 4.66467 5.66314 4.66467V4.66274Z" fill="white"/>
<path d="M9.22106 4.66274H7.30573C7.14463 4.66274 7.01402 4.79452 7.01402 4.95708V6.88966C7.01402 7.05222 7.14463 7.184 7.30573 7.184H9.22106C9.38217 7.184 9.51277 7.05222 9.51277 6.88966V4.95708C9.51277 4.79452 9.38217 4.66274 9.22106 4.66274Z" fill="white"/>
<path d="M12.7289 4.66274H10.8136C10.6525 4.66274 10.5219 4.79452 10.5219 4.95708V6.88966C10.5219 7.05222 10.6525 7.184 10.8136 7.184H12.7289C12.89 7.184 13.0206 7.05222 13.0206 6.88966V4.95708C13.0206 4.79452 12.89 4.66274 12.7289 4.66274Z" fill="white"/>
<path d="M16.2466 8.17869H14.3313C14.1702 8.17869 14.0395 8.31047 14.0395 8.47303V10.4056C14.0395 10.5682 14.1702 10.7 14.3313 10.7H16.2466C16.4077 10.7 16.5383 10.5682 16.5383 10.4056V8.47303C16.5383 8.31047 16.4077 8.17869 16.2466 8.17869Z" fill="white"/>
<path d="M12.7289 8.17869H10.8136C10.6525 8.17869 10.5219 8.31047 10.5219 8.47303V10.4056C10.5219 10.5682 10.6525 10.7 10.8136 10.7H12.7289C12.89 10.7 13.0206 10.5682 13.0206 10.4056V8.47303C13.0206 8.31047 12.89 8.17869 12.7289 8.17869Z" fill="white"/>
<path d="M9.22106 8.17869H7.30573C7.14463 8.17869 7.01402 8.31047 7.01402 8.47303V10.4056C7.01402 10.5682 7.14463 10.7 7.30573 10.7H9.22106C9.38217 10.7 9.51277 10.5682 9.51277 10.4056V8.47303C9.51277 8.31047 9.38217 8.17869 9.22106 8.17869Z" fill="white"/>
<path d="M5.71496 8.17768H3.85145C3.66145 8.17768 3.50792 8.3326 3.50792 8.52431V10.3504C3.50792 10.5421 3.66145 10.697 3.85145 10.697H5.71496C5.87617 10.697 6.00667 10.5653 6.00667 10.4027V8.47009C6.00667 8.30742 5.87617 8.17574 5.71496 8.17574V8.17768Z" fill="white"/>
<path d="M2.20707 8.17869H0.291747C0.130639 8.17869 3.45177e-05 8.31047 3.45177e-05 8.47303L3.45177e-05 10.4056C3.45177e-05 10.5682 0.130639 10.7 0.291747 10.7H2.20707C2.36818 10.7 2.49878 10.5682 2.49878 10.4056V8.47303C2.49878 8.31047 2.36818 8.17869 2.20707 8.17869Z" fill="white"/>
<path d="M2.15525 11.6937H0.343564C0.153838 11.6937 3.45177e-05 11.8489 3.45177e-05 12.0403L3.45177e-05 13.8683C3.45177e-05 14.0597 0.153838 14.2149 0.343564 14.2149H2.15525C2.34498 14.2149 2.49878 14.0597 2.49878 13.8683V12.0403C2.49878 11.8489 2.34498 11.6937 2.15525 11.6937Z" fill="white"/>
<path d="M5.71496 11.6927H3.85145C3.66145 11.6927 3.50792 11.8476 3.50792 12.0393V13.8654C3.50792 14.0571 3.66145 14.212 3.85145 14.212H5.71496C5.87617 14.212 6.00667 14.0803 6.00667 13.9176V11.9851C6.00667 11.8224 5.87617 11.6907 5.71496 11.6907V11.6927Z" fill="white"/>
<path d="M9.22106 11.6937H7.30573C7.14463 11.6937 7.01402 11.8254 7.01402 11.988V13.9206C7.01402 14.0831 7.14463 14.2149 7.30573 14.2149H9.22106C9.38217 14.2149 9.51277 14.0831 9.51277 13.9206V11.988C9.51277 11.8254 9.38217 11.6937 9.22106 11.6937Z" fill="white"/>
<path d="M12.7289 11.6937H10.8136C10.6525 11.6937 10.5219 11.8254 10.5219 11.988V13.9206C10.5219 14.0831 10.6525 14.2149 10.8136 14.2149H12.7289C12.89 14.2149 13.0206 14.0831 13.0206 13.9206V11.988C13.0206 11.8254 12.89 11.6937 12.7289 11.6937Z" fill="white"/>
<path d="M16.2466 11.6937H14.3313C14.1702 11.6937 14.0395 11.8254 14.0395 11.988V13.9206C14.0395 14.0831 14.1702 14.2149 14.3313 14.2149H16.2466C16.4077 14.2149 16.5383 14.0831 16.5383 13.9206V11.988C16.5383 11.8254 16.4077 11.6937 16.2466 11.6937Z" fill="white"/>
<path d="M19.7532 11.6937H17.8379C17.6768 11.6937 17.5461 11.8254 17.5461 11.988V13.9206C17.5461 14.0831 17.6768 14.2149 17.8379 14.2149H19.7532C19.9143 14.2149 20.0449 14.0831 20.0449 13.9206V11.988C20.0449 11.8254 19.9143 11.6937 19.7532 11.6937Z" fill="white"/>
<path d="M19.7532 15.2086H17.8379C17.6768 15.2086 17.5461 15.3404 17.5461 15.503V17.4356C17.5461 17.5981 17.6768 17.7299 17.8379 17.7299H19.7532C19.9143 17.7299 20.0449 17.5981 20.0449 17.4356V15.503C20.0449 15.3404 19.9143 15.2086 19.7532 15.2086Z" fill="white"/>
<path d="M16.2466 15.2086H14.3313C14.1702 15.2086 14.0395 15.3404 14.0395 15.503V17.4356C14.0395 17.5981 14.1702 17.7299 14.3313 17.7299H16.2466C16.4077 17.7299 16.5383 17.5981 16.5383 17.4356V15.503C16.5383 15.3404 16.4077 15.2086 16.2466 15.2086Z" fill="white"/>
<path d="M12.7289 15.2086H10.8136C10.6525 15.2086 10.5219 15.3404 10.5219 15.503V17.4356C10.5219 17.5981 10.6525 17.7299 10.8136 17.7299H12.7289C12.89 17.7299 13.0206 17.5981 13.0206 17.4356V15.503C13.0206 15.3404 12.89 15.2086 12.7289 15.2086Z" fill="white"/>
<path d="M9.22031 15.2086H7.30498C7.14387 15.2086 7.01327 15.3404 7.01327 15.503V17.4356C7.01327 17.5981 7.14387 17.7299 7.30498 17.7299H9.22031C9.38141 17.7299 9.51202 17.5981 9.51202 17.4356V15.503C9.51202 15.3404 9.38141 15.2086 9.22031 15.2086Z" fill="white"/>
<path d="M5.71496 15.2076H3.85145C3.66145 15.2076 3.50792 15.3625 3.50792 15.5543V17.3803C3.50792 17.572 3.66145 17.727 3.85145 17.727H5.71496C5.87617 17.727 6.00667 17.5953 6.00667 17.4326V15.5C6.00667 15.3374 5.87617 15.2057 5.71496 15.2057V15.2076Z" fill="white"/>
<path d="M2.20707 15.2067H0.291747C0.130639 15.2067 3.45177e-05 15.3384 3.45177e-05 15.501L3.45177e-05 17.4336C3.45177e-05 17.5962 0.130639 17.7279 0.291747 17.7279H2.20707C2.36818 17.7279 2.49878 17.5962 2.49878 17.4336V15.501C2.49878 15.3384 2.36818 15.2067 2.20707 15.2067Z" fill="white"/>
<path d="M2.20707 18.7226H0.291747C0.130639 18.7226 3.45177e-05 18.8544 3.45177e-05 19.017L3.45177e-05 20.9495C3.45177e-05 21.1121 0.130639 21.2439 0.291747 21.2439H2.20707C2.36818 21.2439 2.49878 21.1121 2.49878 20.9495V19.017C2.49878 18.8544 2.36818 18.7226 2.20707 18.7226Z" fill="white"/>
<path d="M5.66318 18.7138H3.79967C3.60967 18.7138 3.45614 18.8687 3.45614 19.0604V20.8865C3.45614 21.0782 3.60967 21.2331 3.79967 21.2331H5.66318C5.82439 21.2331 5.95489 21.1014 5.95489 20.9387V19.0062C5.95489 18.8435 5.82439 18.7118 5.66318 18.7118V18.7138Z" fill="white"/>
<path d="M9.22106 18.7226H7.30573C7.14463 18.7226 7.01402 18.8544 7.01402 19.017V20.9495C7.01402 21.1121 7.14463 21.2439 7.30573 21.2439H9.22106C9.38217 21.2439 9.51277 21.1121 9.51277 20.9495V19.017C9.51277 18.8544 9.38217 18.7226 9.22106 18.7226Z" fill="white"/>
<path d="M12.7289 18.7226H10.8136C10.6525 18.7226 10.5219 18.8544 10.5219 19.017V20.9495C10.5219 21.1121 10.6525 21.2439 10.8136 21.2439H12.7289C12.89 21.2439 13.0206 21.1121 13.0206 20.9495V19.017C13.0206 18.8544 12.89 18.7226 12.7289 18.7226Z" fill="white"/>
<path d="M16.2466 18.7226H14.3313C14.1702 18.7226 14.0395 18.8544 14.0395 19.017V20.9495C14.0395 21.1121 14.1702 21.2439 14.3313 21.2439H16.2466C16.4077 21.2439 16.5383 21.1121 16.5383 20.9495V19.017C16.5383 18.8544 16.4077 18.7226 16.2466 18.7226Z" fill="white"/>
<path d="M12.7289 22.2346H10.8136C10.6525 22.2346 10.5219 22.3664 10.5219 22.529V24.4616C10.5219 24.6241 10.6525 24.7559 10.8136 24.7559H12.7289C12.89 24.7559 13.0206 24.6241 13.0206 24.4616V22.529C13.0206 22.3664 12.89 22.2346 12.7289 22.2346Z" fill="white"/>
<path d="M9.22106 22.2346H7.30573C7.14463 22.2346 7.01402 22.3664 7.01402 22.529V24.4616C7.01402 24.6241 7.14463 24.7559 7.30573 24.7559H9.22106C9.38217 24.7559 9.51277 24.6241 9.51277 24.4616V22.529C9.51277 22.3664 9.38217 22.2346 9.22106 22.2346Z" fill="white"/>
<path d="M5.71496 22.2346H3.85145C3.66145 22.2346 3.50792 22.3895 3.50792 22.5812V24.4073C3.50792 24.599 3.66145 24.754 3.85145 24.754H5.71496C5.87617 24.754 6.00667 24.6223 6.00667 24.4596V22.527C6.00667 22.3644 5.87617 22.2327 5.71496 22.2327V22.2346Z" fill="white"/>
<path d="M2.20707 22.2346H0.291747C0.130639 22.2346 3.45177e-05 22.3664 3.45177e-05 22.529L3.45177e-05 24.4616C3.45177e-05 24.6241 0.130639 24.7559 0.291747 24.7559H2.20707C2.36818 24.7559 2.49878 24.6241 2.49878 24.4616V22.529C2.49878 22.3664 2.36818 22.2346 2.20707 22.2346Z" fill="white"/>
<path d="M2.20704 4.66274H0.291712C0.130604 4.66274 0 4.79452 0 4.95708L0 6.88966C0 7.05222 0.130604 7.184 0.291712 7.184H2.20704C2.36814 7.184 2.49875 7.05222 2.49875 6.88966V4.95708C2.49875 4.79452 2.36814 4.66274 2.20704 4.66274Z" fill="white"/>
<path d="M5.66314 4.66274H3.79963C3.63843 4.66274 3.50792 4.79442 3.50792 4.95708V6.88966C3.50792 7.05232 3.63843 7.184 3.79963 7.184H5.66314C5.85314 7.184 6.00667 7.02909 6.00667 6.83738V5.0113C6.00667 4.81959 5.85314 4.66467 5.66314 4.66467V4.66274Z" fill="white"/>
<path d="M9.22106 4.66274H7.30573C7.14463 4.66274 7.01402 4.79452 7.01402 4.95708V6.88966C7.01402 7.05222 7.14463 7.184 7.30573 7.184H9.22106C9.38217 7.184 9.51277 7.05222 9.51277 6.88966V4.95708C9.51277 4.79452 9.38217 4.66274 9.22106 4.66274Z" fill="white"/>
<path d="M12.7289 4.66274H10.8136C10.6525 4.66274 10.5219 4.79452 10.5219 4.95708V6.88966C10.5219 7.05222 10.6525 7.184 10.8136 7.184H12.7289C12.89 7.184 13.0206 7.05222 13.0206 6.88966V4.95708C13.0206 4.79452 12.89 4.66274 12.7289 4.66274Z" fill="white"/>
<path d="M16.2466 8.17869H14.3313C14.1702 8.17869 14.0395 8.31047 14.0395 8.47303V10.4056C14.0395 10.5682 14.1702 10.7 14.3313 10.7H16.2466C16.4077 10.7 16.5383 10.5682 16.5383 10.4056V8.47303C16.5383 8.31047 16.4077 8.17869 16.2466 8.17869Z" fill="white"/>
<path d="M12.7289 8.17869H10.8136C10.6525 8.17869 10.5219 8.31047 10.5219 8.47303V10.4056C10.5219 10.5682 10.6525 10.7 10.8136 10.7H12.7289C12.89 10.7 13.0206 10.5682 13.0206 10.4056V8.47303C13.0206 8.31047 12.89 8.17869 12.7289 8.17869Z" fill="white"/>
<path d="M9.22106 8.17869H7.30573C7.14463 8.17869 7.01402 8.31047 7.01402 8.47303V10.4056C7.01402 10.5682 7.14463 10.7 7.30573 10.7H9.22106C9.38217 10.7 9.51277 10.5682 9.51277 10.4056V8.47303C9.51277 8.31047 9.38217 8.17869 9.22106 8.17869Z" fill="white"/>
<path d="M5.71496 8.17768H3.85145C3.66145 8.17768 3.50792 8.3326 3.50792 8.52431V10.3504C3.50792 10.5421 3.66145 10.697 3.85145 10.697H5.71496C5.87617 10.697 6.00667 10.5653 6.00667 10.4027V8.47009C6.00667 8.30742 5.87617 8.17574 5.71496 8.17574V8.17768Z" fill="white"/>
<path d="M2.20707 8.17869H0.291747C0.130639 8.17869 3.45177e-05 8.31047 3.45177e-05 8.47303L3.45177e-05 10.4056C3.45177e-05 10.5682 0.130639 10.7 0.291747 10.7H2.20707C2.36818 10.7 2.49878 10.5682 2.49878 10.4056V8.47303C2.49878 8.31047 2.36818 8.17869 2.20707 8.17869Z" fill="white"/>
<path d="M2.15525 11.6937H0.343564C0.153838 11.6937 3.45177e-05 11.8489 3.45177e-05 12.0403L3.45177e-05 13.8683C3.45177e-05 14.0597 0.153838 14.2149 0.343564 14.2149H2.15525C2.34498 14.2149 2.49878 14.0597 2.49878 13.8683V12.0403C2.49878 11.8489 2.34498 11.6937 2.15525 11.6937Z" fill="white"/>
<path d="M5.71496 11.6927H3.85145C3.66145 11.6927 3.50792 11.8476 3.50792 12.0393V13.8654C3.50792 14.0571 3.66145 14.212 3.85145 14.212H5.71496C5.87617 14.212 6.00667 14.0803 6.00667 13.9176V11.9851C6.00667 11.8224 5.87617 11.6907 5.71496 11.6907V11.6927Z" fill="white"/>
<path d="M9.22106 11.6937H7.30573C7.14463 11.6937 7.01402 11.8254 7.01402 11.988V13.9206C7.01402 14.0831 7.14463 14.2149 7.30573 14.2149H9.22106C9.38217 14.2149 9.51277 14.0831 9.51277 13.9206V11.988C9.51277 11.8254 9.38217 11.6937 9.22106 11.6937Z" fill="white"/>
<path d="M12.7289 11.6937H10.8136C10.6525 11.6937 10.5219 11.8254 10.5219 11.988V13.9206C10.5219 14.0831 10.6525 14.2149 10.8136 14.2149H12.7289C12.89 14.2149 13.0206 14.0831 13.0206 13.9206V11.988C13.0206 11.8254 12.89 11.6937 12.7289 11.6937Z" fill="white"/>
<path d="M16.2466 11.6937H14.3313C14.1702 11.6937 14.0395 11.8254 14.0395 11.988V13.9206C14.0395 14.0831 14.1702 14.2149 14.3313 14.2149H16.2466C16.4077 14.2149 16.5383 14.0831 16.5383 13.9206V11.988C16.5383 11.8254 16.4077 11.6937 16.2466 11.6937Z" fill="white"/>
<path d="M19.7532 11.6937H17.8379C17.6768 11.6937 17.5461 11.8254 17.5461 11.988V13.9206C17.5461 14.0831 17.6768 14.2149 17.8379 14.2149H19.7532C19.9143 14.2149 20.0449 14.0831 20.0449 13.9206V11.988C20.0449 11.8254 19.9143 11.6937 19.7532 11.6937Z" fill="white"/>
<path d="M19.7532 15.2086H17.8379C17.6768 15.2086 17.5461 15.3404 17.5461 15.503V17.4356C17.5461 17.5981 17.6768 17.7299 17.8379 17.7299H19.7532C19.9143 17.7299 20.0449 17.5981 20.0449 17.4356V15.503C20.0449 15.3404 19.9143 15.2086 19.7532 15.2086Z" fill="white"/>
<path d="M16.2466 15.2086H14.3313C14.1702 15.2086 14.0395 15.3404 14.0395 15.503V17.4356C14.0395 17.5981 14.1702 17.7299 14.3313 17.7299H16.2466C16.4077 17.7299 16.5383 17.5981 16.5383 17.4356V15.503C16.5383 15.3404 16.4077 15.2086 16.2466 15.2086Z" fill="white"/>
<path d="M12.7289 15.2086H10.8136C10.6525 15.2086 10.5219 15.3404 10.5219 15.503V17.4356C10.5219 17.5981 10.6525 17.7299 10.8136 17.7299H12.7289C12.89 17.7299 13.0206 17.5981 13.0206 17.4356V15.503C13.0206 15.3404 12.89 15.2086 12.7289 15.2086Z" fill="white"/>
<path d="M9.22031 15.2086H7.30498C7.14387 15.2086 7.01327 15.3404 7.01327 15.503V17.4356C7.01327 17.5981 7.14387 17.7299 7.30498 17.7299H9.22031C9.38141 17.7299 9.51202 17.5981 9.51202 17.4356V15.503C9.51202 15.3404 9.38141 15.2086 9.22031 15.2086Z" fill="white"/>
<path d="M5.71496 15.2076H3.85145C3.66145 15.2076 3.50792 15.3625 3.50792 15.5543V17.3803C3.50792 17.572 3.66145 17.727 3.85145 17.727H5.71496C5.87617 17.727 6.00667 17.5953 6.00667 17.4326V15.5C6.00667 15.3374 5.87617 15.2057 5.71496 15.2057V15.2076Z" fill="white"/>
<path d="M2.20707 15.2067H0.291747C0.130639 15.2067 3.45177e-05 15.3384 3.45177e-05 15.501L3.45177e-05 17.4336C3.45177e-05 17.5962 0.130639 17.7279 0.291747 17.7279H2.20707C2.36818 17.7279 2.49878 17.5962 2.49878 17.4336V15.501C2.49878 15.3384 2.36818 15.2067 2.20707 15.2067Z" fill="white"/>
<path d="M2.20707 18.7226H0.291747C0.130639 18.7226 3.45177e-05 18.8544 3.45177e-05 19.017L3.45177e-05 20.9495C3.45177e-05 21.1121 0.130639 21.2439 0.291747 21.2439H2.20707C2.36818 21.2439 2.49878 21.1121 2.49878 20.9495V19.017C2.49878 18.8544 2.36818 18.7226 2.20707 18.7226Z" fill="white"/>
<path d="M5.66318 18.7138H3.79967C3.60967 18.7138 3.45614 18.8687 3.45614 19.0604V20.8865C3.45614 21.0782 3.60967 21.2331 3.79967 21.2331H5.66318C5.82439 21.2331 5.95489 21.1014 5.95489 20.9387V19.0062C5.95489 18.8435 5.82439 18.7118 5.66318 18.7118V18.7138Z" fill="white"/>
<path d="M9.22106 18.7226H7.30573C7.14463 18.7226 7.01402 18.8544 7.01402 19.017V20.9495C7.01402 21.1121 7.14463 21.2439 7.30573 21.2439H9.22106C9.38217 21.2439 9.51277 21.1121 9.51277 20.9495V19.017C9.51277 18.8544 9.38217 18.7226 9.22106 18.7226Z" fill="white"/>
<path d="M12.7289 18.7226H10.8136C10.6525 18.7226 10.5219 18.8544 10.5219 19.017V20.9495C10.5219 21.1121 10.6525 21.2439 10.8136 21.2439H12.7289C12.89 21.2439 13.0206 21.1121 13.0206 20.9495V19.017C13.0206 18.8544 12.89 18.7226 12.7289 18.7226Z" fill="white"/>
<path d="M16.2466 18.7226H14.3313C14.1702 18.7226 14.0395 18.8544 14.0395 19.017V20.9495C14.0395 21.1121 14.1702 21.2439 14.3313 21.2439H16.2466C16.4077 21.2439 16.5383 21.1121 16.5383 20.9495V19.017C16.5383 18.8544 16.4077 18.7226 16.2466 18.7226Z" fill="white"/>
<path d="M12.7289 22.2346H10.8136C10.6525 22.2346 10.5219 22.3664 10.5219 22.529V24.4616C10.5219 24.6241 10.6525 24.7559 10.8136 24.7559H12.7289C12.89 24.7559 13.0206 24.6241 13.0206 24.4616V22.529C13.0206 22.3664 12.89 22.2346 12.7289 22.2346Z" fill="white"/>
<path d="M9.22106 22.2346H7.30573C7.14463 22.2346 7.01402 22.3664 7.01402 22.529V24.4616C7.01402 24.6241 7.14463 24.7559 7.30573 24.7559H9.22106C9.38217 24.7559 9.51277 24.6241 9.51277 24.4616V22.529C9.51277 22.3664 9.38217 22.2346 9.22106 22.2346Z" fill="white"/>
<path d="M5.71496 22.2346H3.85145C3.66145 22.2346 3.50792 22.3895 3.50792 22.5812V24.4073C3.50792 24.599 3.66145 24.754 3.85145 24.754H5.71496C5.87617 24.754 6.00667 24.6223 6.00667 24.4596V22.527C6.00667 22.3644 5.87617 22.2327 5.71496 22.2327V22.2346Z" fill="white"/>
<path d="M2.20707 22.2346H0.291747C0.130639 22.2346 3.45177e-05 22.3664 3.45177e-05 22.529L3.45177e-05 24.4616C3.45177e-05 24.6241 0.130639 24.7559 0.291747 24.7559H2.20707C2.36818 24.7559 2.49878 24.6241 2.49878 24.4616V22.529C2.49878 22.3664 2.36818 22.2346 2.20707 22.2346Z" fill="white"/>
<path d="M38.7151 8.80516C37.7003 7.20718 35.8016 6.06577 32.9862 6.06577C28.3704 6.06577 24.9658 9.49 24.9658 14.5774C24.9658 19.991 28.3704 23.0891 32.9862 23.0891C35.8016 23.0891 37.6021 21.752 38.7151 20.2193L39.0752 22.8934H41.3995V0.0652226H38.7151V8.80516ZM33.2481 20.7084C29.9417 20.7084 27.7157 18.1973 27.7157 14.5774C27.7157 10.9575 29.9417 8.44643 33.2481 8.44643C36.5218 8.44643 38.7479 10.9901 38.7479 14.6427C38.7479 18.1973 36.5218 20.7084 33.2481 20.7084Z" fill="white"/>
<path d="M52.5155 23.0891C56.3785 23.0891 59.1283 20.6432 59.7831 17.3168H57.0659C56.5094 19.4692 54.6762 20.7084 52.3191 20.7084C49.1437 20.7084 47.1468 18.4908 47.0485 15.3275V15.0992H60.0122C60.0449 14.7079 60.0777 14.3165 60.0777 13.9578C59.9467 9.03344 56.8695 6.06577 52.1554 6.06577C47.4414 6.06577 44.2332 9.52261 44.2332 14.5774C44.2332 19.6649 47.5069 23.0891 52.5155 23.0891ZM47.2122 12.8816C47.4741 10.1748 49.7329 8.41382 52.1882 8.41382C54.9708 8.41382 56.935 10.0118 57.1969 12.8816H47.2122Z" fill="white"/>
<path d="M71.0912 6.06577C68.2758 6.06577 66.5735 7.2398 65.5914 8.51165L65.2313 6.26144H62.907V22.8934H65.5914V14.5774C65.5914 10.8271 67.4901 8.51165 70.6328 8.51165C73.5464 8.51165 75.1505 10.3379 75.1505 13.7947V22.8934H77.8349V13.6317C77.8349 8.12031 74.8559 6.06577 71.0912 6.06577Z" fill="white"/>
<path d="M80.3361 17.4146C80.4016 21.0672 83.3806 23.0891 87.7018 23.0891C91.401 23.0891 94.3801 21.165 94.3801 18.0669C94.3801 14.3818 91.3356 13.6643 87.5381 13.2077C85.1156 12.9142 83.3478 12.6859 83.3478 10.8597C83.3478 9.32695 84.9192 8.34859 87.2435 8.34859C89.5351 8.34859 91.1064 9.62045 91.3028 11.3163H94.0527C93.7908 7.85942 91.0409 6.09839 87.2435 6.06577C83.4788 6.03316 80.6962 8.02248 80.6962 11.0554C80.6962 14.5122 83.6752 15.2623 87.4072 15.7188C89.8952 16.0123 91.7284 16.1754 91.7284 18.2625C91.7284 19.7953 90.0588 20.8063 87.7018 20.8063C84.9192 20.8063 83.1842 19.3713 83.086 17.4146H80.3361Z" fill="white"/>
<path d="M98.5009 3.45684C99.483 3.45684 100.236 2.73938 100.236 1.72842C100.236 0.717458 99.483 0 98.5009 0C97.5189 0 96.7659 0.717458 96.7659 1.72842C96.7659 2.73938 97.5189 3.45684 98.5009 3.45684ZM97.126 22.8934H99.8104V6.26144H97.126V22.8934Z" fill="white"/>
<path d="M104.498 18.5561C104.498 21.4911 105.644 22.8934 108.852 22.8934H111.766V20.4475H109.114C107.673 20.4475 107.182 19.9257 107.182 18.5234V8.70732H111.504V6.26144H107.182V1.59797H104.498V6.26144H101.486V8.70732H104.498V18.5561Z" fill="white"/>
<path d="M118.703 22.9912L117.884 25.0132C117.262 26.5785 117.001 26.9699 115.462 26.9699H113.072V29.4157H116.28C118.637 29.4157 119.259 28.3722 120.307 25.698L128 6.26144H125.152L120.176 19.5344L115.036 6.26144H112.188L118.703 22.9912Z" fill="white"/>
</svg>
