<svg width="16" height="32" viewBox="0 0 16 32" fill="none" xmlns="http://www.w3.org/2000/svg">
<path d="M15.8256 29.1052C15.8649 28.7066 15.9059 28.2907 15.9452 27.8921C15.9674 27.6668 15.9724 27.4397 15.9774 27.2127C15.996 26.8471 15.9974 26.4797 15.9987 26.1124C16.0037 25.8854 15.9931 25.6393 15.9808 25.4106C15.9807 25.2356 15.9788 25.0779 15.9786 24.9029C15.9872 24.8162 15.9612 24.7262 15.9525 24.6378C15.8878 23.7039 15.8041 22.7857 15.6514 21.8607C15.6565 21.8087 15.6599 21.774 15.6305 21.7186C15.5871 21.4518 15.5265 21.1834 15.4658 20.9149C15.419 20.6828 15.374 20.4333 15.3099 20.1995C15.2233 19.841 15.135 19.4998 15.0311 19.1395C14.9653 18.923 14.9168 18.7083 14.851 18.4918C14.735 18.0778 14.5828 17.6778 14.4479 17.2795C14.3925 17.1341 14.3389 16.9713 14.2835 16.8258C14.0759 16.2804 13.8667 15.7522 13.6229 15.2207C13.6229 15.2207 13.6229 15.2207 13.6246 15.2034C13.367 14.6355 13.0921 14.0659 12.7982 13.5119C12.7101 13.3457 12.6202 13.1969 12.5321 13.0307C12.3091 12.6412 12.0862 12.2517 11.8615 11.8796C11.8477 11.8432 11.8321 11.8242 11.801 11.7861C11.7716 11.7307 11.7233 11.6909 11.6939 11.6355C11.1358 10.758 10.5397 9.91173 9.87118 9.09331C9.87118 9.09331 9.84008 9.05525 9.82453 9.03621C9.82453 9.03621 9.82454 9.03621 9.80728 9.03451C9.2165 8.31126 8.58779 7.61927 7.92285 6.94121C7.84341 6.86337 7.79848 6.78895 7.71903 6.71111C7.65513 6.65231 7.59124 6.59351 7.52734 6.53471C6.98679 6.00891 6.44623 5.48311 5.86603 5.0059L0 0C0.578488 0.49454 1.12076 1.00301 1.66131 1.52881C1.7874 1.66374 1.91348 1.79867 2.05682 1.93531C2.72176 2.61337 3.35046 3.30536 3.94125 4.02861C3.95679 4.04764 3.97063 4.084 4.00343 4.10474C4.6547 4.92145 5.26802 5.76942 5.82617 6.64695C5.8711 6.72138 5.93329 6.79752 5.97651 6.88928C6.21672 7.28046 6.43967 7.66994 6.66262 8.05942C6.75248 8.20828 6.84234 8.35714 6.9305 8.52333C7.22434 9.0773 7.49923 9.6469 7.75685 10.2148C8.00064 10.7463 8.22546 11.2935 8.43303 11.839C8.48838 11.9844 8.54203 12.1472 8.58012 12.291C8.73234 12.691 8.8673 13.0893 8.98329 13.5032C9.04906 13.7197 9.09758 13.9345 9.16335 14.1509C9.26721 14.5112 9.35554 14.8524 9.44215 15.2109C9.50621 15.4447 9.53405 15.6925 9.59811 15.9263C9.65534 16.2294 9.72811 16.5516 9.78363 16.8721C9.93805 17.7798 10.0373 18.7171 10.0847 19.6492C10.0936 19.9126 10.1215 20.1604 10.1303 20.4237C10.1426 20.6524 10.136 20.8968 10.1483 21.1255C10.1469 21.4928 10.1455 21.8602 10.1286 22.2085C10.1064 22.4338 10.1187 22.6626 10.0964 22.8879C10.0571 23.2865 10.0178 23.6851 9.97851 24.0837C9.95971 24.2744 9.94091 24.465 9.92211 24.6556C9.864 25.2449 9.75242 25.8464 9.64083 26.4479L15.5069 31.4538C15.6185 30.8523 15.7128 30.2491 15.7881 29.6615C15.8069 29.4709 15.8257 29.2803 15.8445 29.0896L15.8256 29.1052Z" fill="#269B56"/>
</svg>
