<svg width="9" height="11" viewBox="0 0 9 11" fill="none" xmlns="http://www.w3.org/2000/svg">
<path d="M6.35372 0.0914192C6.35372 0.0914192 5.40413 2.6936 5.34689 3.33786C5.28964 3.98212 4.74848 5.14693 6.4167 6.02397C6.4167 6.02397 8.3639 6.95642 8.91173 7.07315C8.91173 7.07315 6.83837 6.3459 6.25417 6.28878C5.66998 6.23166 4.52484 5.96834 3.5167 8.28975L2.52275 10.8509C2.52275 10.8509 3.44795 8.12495 3.54051 7.56162C3.63306 6.9983 4.08772 5.68006 2.31912 4.83585L0.102759 3.91041C0.102759 3.91041 1.90045 4.60931 3.01892 4.69758C4.13738 4.78584 5.07985 3.59338 6.35372 0.0914192Z" fill="#33B568" stroke="#33B568" stroke-width="0.49391" stroke-miterlimit="10"/>
</svg>
