<svg width="33" height="35" viewBox="0 0 33 35" fill="none" xmlns="http://www.w3.org/2000/svg">
<path d="M32.9566 17.8714C32.9787 17.6471 32.9665 17.4194 32.9714 17.1933C32.9745 16.8103 33.0119 16.4307 32.9961 16.0632C33.0046 15.9769 32.9771 15.9045 32.9684 15.8166C32.9458 15.5181 32.9215 15.2369 32.88 14.9541C32.8557 14.6729 32.833 14.3744 32.7898 14.1088C32.7829 14.0036 32.7398 13.9122 32.7312 13.8243C32.6604 13.4862 32.5896 13.1482 32.5017 12.8085C32.4138 12.4687 32.3413 12.148 32.2345 11.8238C32.1277 11.4996 32.002 11.191 31.878 10.8652C31.7953 10.6479 31.716 10.3962 31.6334 10.1789C31.5903 10.0876 31.5456 10.0135 31.5009 9.93937C31.3442 9.59286 31.1515 9.26023 30.9571 8.94485C30.8383 8.74147 30.7557 8.52424 30.6352 8.33812C30.5905 8.26401 30.5269 8.20547 30.4821 8.13136C30.3617 7.94524 30.2069 7.75574 30.0693 7.56793C29.9162 7.36117 29.782 7.13885 29.6117 6.93039C29.5188 6.81669 29.4071 6.71855 29.3142 6.60485C29.1904 6.45324 29.0476 6.3172 28.9238 6.1656C28.8137 6.0502 28.7054 5.91755 28.597 5.7849C28.3116 5.51281 28.0262 5.24073 27.7218 4.98421L21.8812 -1.84445e-06C22.3128 0.37361 22.7083 0.76109 23.0832 1.18139C23.2242 1.33469 23.3497 1.46903 23.4736 1.62064C23.7384 1.92554 23.9844 2.246 24.2287 2.58372C24.3663 2.77153 24.5039 2.95934 24.6415 3.14715C24.8067 3.40737 24.953 3.68316 25.1164 3.96063C25.3092 4.29327 25.4847 4.62421 25.6586 4.97241C25.8031 5.26545 25.91 5.58962 26.0357 5.89822C26.1614 6.20682 26.2854 6.53268 26.3922 6.85684C26.499 7.18101 26.5698 7.51904 26.6594 7.84151C26.7473 8.18124 26.837 8.50371 26.8888 8.8573C26.9562 9.22985 27.0047 9.61795 27.036 10.0044C27.0603 10.2855 27.1001 10.5857 27.1244 10.8669C27.1489 11.3223 27.139 11.7743 27.1291 12.2264C27.107 12.4507 27.1364 12.6801 27.1143 12.9045C27.0634 13.5964 26.9765 14.3022 26.838 15.0029C26.8209 15.1755 26.7541 15.3257 26.7199 15.4966C26.5984 16.0248 26.4597 16.5512 26.2884 17.057C26.2131 17.2936 26.1394 17.5128 26.0469 17.7476C25.9303 18.0497 25.8121 18.3691 25.6784 18.6696C25.5669 18.92 25.4572 19.1531 25.3458 19.4034C25.236 19.6366 25.1074 19.8852 24.9805 20.1167C24.8519 20.3653 24.7061 20.6123 24.5431 20.8576C24.4179 21.0718 24.2944 21.2687 24.152 21.4811C23.9891 21.7264 23.8278 21.9545 23.6476 22.1981C23.5069 22.3933 23.3663 22.5885 23.2101 22.7647C23.0316 22.9911 22.8377 23.1985 22.6592 23.4248C22.5014 23.6183 22.328 23.7929 22.153 23.9847C21.9607 24.1749 21.7685 24.365 21.578 24.5379C21.3669 24.7436 21.1575 24.932 20.948 25.1204C20.7764 25.2777 20.5893 25.4161 20.4004 25.5717C20.1189 25.7879 19.8357 26.0213 19.5558 26.2202C19.3876 26.343 19.2021 26.4641 19.0356 26.5697C18.5532 26.888 18.0552 27.1874 17.5607 27.4523C17.4508 27.5111 17.3581 27.5717 17.2482 27.6305C17.1572 27.6738 17.049 27.7154 16.9563 27.776C16.6111 27.9336 16.266 28.0912 15.9225 28.2316C15.7783 28.2871 15.634 28.3425 15.4897 28.398C15.148 28.5211 14.8251 28.6287 14.4679 28.7328C14.3425 28.7728 14.2171 28.8127 14.0746 28.8509C13.6108 28.9794 13.1316 29.089 12.6541 29.1813C12.5837 29.1917 12.5133 29.2022 12.4429 29.2127C12.0375 29.2773 11.6321 29.3418 11.213 29.3702C11.0549 29.3895 10.8986 29.3915 10.7594 29.3952C10.4107 29.413 10.0448 29.4292 9.69777 29.4299C9.54314 29.4146 9.40228 29.4356 9.24765 29.4203C8.74599 29.4057 8.26322 29.3755 7.76667 29.3091C4.75129 28.9247 2.11307 27.7062 5.00321e-06 25.9122L5.84062 30.8964C7.95368 32.6904 10.5919 33.9089 13.6073 34.2933C14.1055 34.3425 14.6038 34.3916 15.0883 34.4045C15.2429 34.4198 15.3837 34.3988 15.5384 34.4141C15.9026 34.4151 16.2496 34.4145 16.6 34.3794C16.7564 34.3774 16.9144 34.3581 17.0536 34.3544C17.4744 34.3088 17.8781 34.2615 18.2835 34.1969C18.3539 34.1864 18.4243 34.1759 18.4948 34.1655C18.9723 34.0732 19.4343 33.9619 19.9152 33.8351C20.0406 33.7952 20.1659 33.7553 20.3085 33.7171C20.6485 33.6112 20.9886 33.5053 21.3304 33.3822C21.4746 33.3268 21.6189 33.2713 21.7631 33.2158C22.1066 33.0754 22.4689 32.9195 22.7969 32.7602C22.8879 32.7169 22.9961 32.6753 23.0888 32.6147C23.1249 32.6009 23.1438 32.5853 23.1798 32.5714C23.2537 32.5265 23.3275 32.4815 23.4013 32.4365C23.913 32.1733 24.3938 31.8722 24.8762 31.5539C24.9518 31.4917 25.0411 31.4656 25.1338 31.4051C25.2265 31.3445 25.3209 31.2667 25.4136 31.2061C25.7123 30.9917 25.9939 30.7755 26.2582 30.5576C26.3715 30.4643 26.5003 30.3898 26.6136 30.2965C26.6891 30.2342 26.7475 30.1703 26.8058 30.1063C27.0153 29.9179 27.2247 29.7295 27.4358 29.5238C27.5697 29.3976 27.7018 29.2886 27.8357 29.1625C27.8941 29.0985 27.9524 29.0346 28.0108 28.9706C28.1841 28.7961 28.342 28.6025 28.4982 28.4263C28.6166 28.2811 28.7504 28.155 28.8688 28.0098C28.9289 27.9286 28.9889 27.8474 29.049 27.7662C29.188 27.5883 29.3459 27.3947 29.4865 27.1995C29.5878 27.0527 29.7045 26.9248 29.804 26.7952C29.8657 26.6968 29.9292 26.5811 29.9909 26.4826C30.1316 26.2874 30.2568 26.0732 30.3821 25.8591C30.4644 25.7278 30.5467 25.5965 30.6291 25.4653C30.6925 25.3495 30.756 25.2338 30.8211 25.1009C30.948 24.8694 31.075 24.638 31.1864 24.3877C31.2515 24.2547 31.315 24.139 31.3802 24.006C31.4264 23.8886 31.4727 23.7712 31.519 23.6538C31.6527 23.3534 31.7692 23.0512 31.8875 22.7318C31.9354 22.5972 32.0006 22.4642 32.0503 22.3123C32.076 22.2277 32.1034 22.1258 32.129 22.0413C32.3004 21.5354 32.439 21.009 32.5605 20.4808C32.5707 20.3773 32.6153 20.2771 32.6427 20.1753C32.6495 20.1062 32.6546 20.0545 32.6786 19.9872C32.8171 19.2864 32.904 18.5806 32.9549 17.8887L32.9566 17.8714Z" fill="#269B56"/>
</svg>
