<svg width="22" height="21" viewBox="0 0 22 21" fill="none" xmlns="http://www.w3.org/2000/svg">
<g clip-path="url(#clip0_1_2260)">
<path d="M4.99495 20.625V6.70935H0.278281L0.278281 20.625H4.99495ZM2.63722 4.80826C4.28201 4.80826 5.30581 3.7397 5.30581 2.40436C5.27516 1.0389 4.28207 0 2.66844 0C1.05505 0 0 1.03892 0 2.40436C0 3.73976 1.02355 4.80826 2.60643 4.80826H2.63708H2.63722ZM7.6056 20.625H12.3223V12.8538C12.3223 12.4379 12.3529 12.0224 12.4775 11.7251C12.8184 10.8942 13.5945 10.0335 14.8975 10.0335C16.6042 10.0335 17.287 11.3096 17.287 13.1803V20.6249H22.0034V12.6458C22.0034 8.37145 19.6765 6.38265 16.5732 6.38265C14.0287 6.38265 12.9115 7.77735 12.2909 8.72728H12.3224V6.70906H7.60571C7.66761 8.01483 7.60571 20.6247 7.60571 20.6247L7.6056 20.625Z" fill="white"/>
</g>
<defs>
<clipPath id="clip0_1_2260">
<rect width="21.3531" height="20.0185" fill="white" transform="scale(1.03029)"/>
</clipPath>
</defs>
</svg>
