<svg width="109" height="104" viewBox="0 0 109 104" fill="none" xmlns="http://www.w3.org/2000/svg">
<g opacity="0.04">
<path d="M31.4988 0H47.0904C48.4041 0 49.4691 1.06098 49.4691 2.36975V17.9027C49.4691 19.2115 48.4041 20.2724 47.0904 20.2724H31.4988C30.185 20.2724 29.12 19.2115 29.12 17.9027V2.36975C29.12 1.06098 30.185 0 31.4988 0Z" fill="black"/>
<path d="M47.0912 48.524H31.4996C30.1859 48.524 29.1209 47.4631 29.1209 46.1543L29.1209 30.6213C29.1209 29.3126 30.1859 28.2516 31.4996 28.2516L47.0912 28.2516C48.4049 28.2516 49.4699 29.3126 49.4699 30.6213V46.1543C49.4699 47.4631 48.4049 48.524 47.0912 48.524Z" fill="black"/>
<path d="M2.37933 0.000244624H17.9709C19.2847 0.000244624 20.3497 1.06122 20.3497 2.36999V17.9029C20.3497 19.2117 19.2847 20.2727 17.9709 20.2727H2.37933C1.06561 20.2727 0.000636404 19.2117 0.000636404 17.9029V2.36999C0.000636404 1.06122 1.06561 0.000244624 2.37933 0.000244624Z" fill="black"/>
<path d="M17.9703 48.524H2.37871C1.06499 48.524 0 47.4631 0 46.1543L0 30.6213C0 29.3126 1.06499 28.2516 2.37871 28.2516L17.9703 28.2516C19.284 28.2516 20.349 29.3126 20.349 30.6213L20.349 46.1543C20.349 47.4631 19.284 48.524 17.9703 48.524Z" fill="black"/>
<path d="M31.4988 55.4855H47.0904C48.4041 55.4855 49.4691 56.5465 49.4691 57.8553V73.3882C49.4691 74.697 48.4041 75.7579 47.0904 75.7579H31.4988C30.185 75.7579 29.12 74.697 29.12 73.3882V57.8553C29.12 56.5465 30.185 55.4855 31.4988 55.4855Z" fill="black"/>
<path d="M47.0912 104H31.4996C30.1859 104 29.1209 102.939 29.1209 101.63L29.1209 86.0973C29.1209 84.7885 30.1859 83.7276 31.4996 83.7276H47.0912C48.4049 83.7276 49.4699 84.7885 49.4699 86.0973V101.63C49.4699 102.939 48.4049 104 47.0912 104Z" fill="black"/>
<path d="M90.9439 0H106.536C107.849 0 108.914 1.06098 108.914 2.36975V17.9027C108.914 19.2115 107.849 20.2724 106.536 20.2724H90.9439C89.6302 20.2724 88.5652 19.2115 88.5652 17.9027V2.36975C88.5652 1.06098 89.6302 0 90.9439 0Z" fill="black"/>
<path d="M106.536 48.524H90.9448C89.631 48.524 88.5661 47.4631 88.5661 46.1543V30.6213C88.5661 29.3126 89.631 28.2516 90.9448 28.2516L106.536 28.2516C107.85 28.2516 108.915 29.3126 108.915 30.6213V46.1543C108.915 47.4631 107.85 48.524 106.536 48.524Z" fill="black"/>
<path d="M61.8245 0.000244624H77.4161C78.7298 0.000244624 79.7948 1.06122 79.7948 2.36999V17.9029C79.7948 19.2117 78.7298 20.2727 77.4161 20.2727H61.8245C60.5108 20.2727 59.4458 19.2117 59.4458 17.9029V2.36999C59.4458 1.06122 60.5108 0.000244624 61.8245 0.000244624Z" fill="black"/>
<path d="M77.4155 48.524H61.8239C60.5101 48.524 59.4451 47.4631 59.4451 46.1543V30.6213C59.4451 29.3126 60.5101 28.2516 61.8239 28.2516L77.4155 28.2516C78.7292 28.2516 79.7942 29.3126 79.7942 30.6213V46.1543C79.7942 47.4631 78.7292 48.524 77.4155 48.524Z" fill="black"/>
<path d="M90.9439 55.4855H106.536C107.849 55.4855 108.914 56.5465 108.914 57.8553V73.3882C108.914 74.697 107.849 75.7579 106.536 75.7579H90.9439C89.6302 75.7579 88.5652 74.697 88.5652 73.3882V57.8553C88.5652 56.5465 89.6302 55.4855 90.9439 55.4855Z" fill="black"/>
<path d="M106.536 104H90.9448C89.631 104 88.5661 102.939 88.5661 101.63V86.0973C88.5661 84.7885 89.631 83.7276 90.9448 83.7276H106.536C107.85 83.7276 108.915 84.7885 108.915 86.0973V101.63C108.915 102.939 107.85 104 106.536 104Z" fill="black"/>
</g>
</svg>
