<svg width="159" height="105" viewBox="0 0 159 105" fill="none" xmlns="http://www.w3.org/2000/svg">
<path opacity="0.2" d="M91.3845 54.0002C85.5228 50.6189 82.2166 46.035 82.1928 41.2488C82.163 36.4625 85.4215 31.8787 91.2416 28.4973C97.0616 25.116 104.979 23.217 113.241 23.217C121.503 23.217 129.438 25.116 135.294 28.4973C141.15 31.8787 144.462 36.4625 144.492 41.2488C144.521 46.035 141.263 50.6189 135.437 54.0002C129.617 57.3816 121.706 59.2806 113.443 59.2806C105.181 59.2806 97.2463 57.3816 91.3845 54.0002Z" fill="white"/>
<path opacity="0.2" d="M80.4058 60.3759C104.83 74.4668 114.778 91.5818 102.649 98.6243L91.6706 105L3.27993 54.0002L14.2588 47.6244C26.3873 40.582 55.9879 46.285 80.4058 60.3759Z" fill="white"/>
<mask id="mask0_1_956" style="mask-type:luminance" maskUnits="userSpaceOnUse" x="79" y="18" width="10" height="33">
<path d="M88.4061 30.7833L88.3525 50.1962C82.4907 46.8148 79.1846 42.231 79.1607 37.4447L79.2143 18.0318C79.2382 22.8121 82.5443 27.4019 88.4061 30.7833Z" fill="white"/>
</mask>
<g mask="url(#mask0_1_956)">
<path d="M88.4061 30.7833L88.3525 50.1962C82.4907 46.8148 79.1846 42.231 79.1607 37.4447L79.2143 18.0318C79.2382 22.8121 82.5443 27.4019 88.4061 30.7833Z" fill="#1D974F"/>
</g>
<path d="M88.4061 30.7833C82.5443 27.4019 79.2382 22.8181 79.2144 18.0318C79.1846 13.2456 82.4431 8.6617 88.2631 5.28036C94.0831 1.89903 102 0 110.262 0C118.525 0 126.46 1.89903 132.315 5.28036C138.171 8.6617 141.483 13.2456 141.513 18.0318C141.543 22.8181 138.284 27.4019 132.458 30.7833C126.638 34.1646 118.727 36.0636 110.465 36.0636C102.203 36.0636 94.2678 34.1646 88.4061 30.7833Z" fill="url(#paint0_linear_1_956)"/>
<mask id="mask1_1_956" style="mask-type:luminance" maskUnits="userSpaceOnUse" x="88" y="18" width="54" height="38">
<path d="M141.513 18.0318L141.46 37.4447C141.489 42.231 138.231 46.8148 132.405 50.1962C126.585 53.5775 118.674 55.4766 110.411 55.4766C102.149 55.4766 94.2142 53.5775 88.3525 50.1962L88.4061 30.7833C94.2678 34.1646 102.203 36.0636 110.465 36.0636C118.727 36.0636 126.638 34.1646 132.458 30.7833C138.278 27.4019 141.537 22.8181 141.513 18.0318Z" fill="white"/>
</mask>
<g mask="url(#mask1_1_956)">
<path d="M141.513 18.0318L141.46 37.4447C141.465 38.9151 141.168 40.3617 140.578 41.7667L140.632 22.3537C141.221 20.9488 141.525 19.5022 141.513 18.0318Z" fill="#1D974F"/>
<path d="M140.632 22.3538L140.578 41.7667C139.244 44.9337 136.444 47.8567 132.411 50.1962C126.591 53.5776 118.68 55.4766 110.417 55.4766C110.227 55.4766 110.036 55.4766 109.851 55.4766L109.905 36.0637C110.096 36.0637 110.286 36.0637 110.471 36.0637C118.733 36.0637 126.644 34.1646 132.464 30.7833C136.497 28.4378 139.303 25.5208 140.632 22.3538Z" fill="#1D974F"/>
<path d="M109.899 36.0577L109.845 55.4706C101.786 55.3873 94.0831 53.4942 88.3525 50.1902L88.4061 30.7773C94.1308 34.0813 101.839 35.9684 109.899 36.0577Z" fill="#1D974F"/>
</g>
<mask id="mask2_1_956" style="mask-type:luminance" maskUnits="userSpaceOnUse" x="99" y="67" width="6" height="28">
<path d="M104.842 67.1209L104.788 86.5338C104.776 89.9211 103.114 92.7904 99.6232 94.8204L99.6768 75.4075C103.174 73.3775 104.836 70.5081 104.842 67.1209Z" fill="white"/>
</mask>
<g mask="url(#mask2_1_956)">
<path d="M104.842 67.1209L104.788 86.5338C104.788 87.772 104.562 88.9448 104.103 90.0342L104.156 70.6212C104.609 69.5378 104.836 68.365 104.842 67.1209Z" fill="#36D068"/>
<path d="M104.156 70.6153L104.103 90.0283C103.317 91.9094 101.833 93.5287 99.6172 94.8205L99.6708 75.4075C101.887 74.1217 103.364 72.4965 104.156 70.6153Z" fill="#36D068"/>
</g>
<path d="M77.4272 37.159C101.851 51.2499 111.799 68.365 99.6708 75.4075L88.692 81.7832L0.301355 30.7833L11.2802 24.4076C23.4087 17.3651 53.0093 23.0682 77.4272 37.159Z" fill="url(#paint1_linear_1_956)"/>
<path d="M99.6768 75.4074L99.6172 94.8203L88.6444 101.19L88.698 81.7831L99.6768 75.4074Z" fill="#36D068"/>
<path d="M88.698 81.7832L88.6443 101.19L0.247742 50.1903L0.301355 30.7833L88.698 81.7832Z" fill="#1D974F"/>
<path d="M153.472 6.96011C153.472 6.96011 152.397 11.137 152.407 12.1439C152.417 13.1508 151.756 15.0382 154.477 16.1422C154.477 16.1422 157.641 17.2894 158.508 17.3866C158.508 17.3866 155.181 16.5766 154.266 16.5773C153.351 16.5781 151.534 16.3451 150.326 20.0959L149.176 24.2158C149.176 24.2158 150.194 19.851 150.251 18.9641C150.309 18.0771 150.812 15.9652 147.94 14.9274L144.36 13.8322C144.36 13.8322 147.256 14.6404 149.004 14.6063C150.753 14.5722 152.032 12.5806 153.472 6.96011Z" fill="#33B568" stroke="#33B568" stroke-width="0.277825" stroke-miterlimit="10"/>
<path d="M16.0294 57.672C16.0294 57.672 15.5391 59.5771 15.5435 60.0364C15.548 60.4957 15.2463 61.3566 16.4878 61.8601C16.4878 61.8601 17.9305 62.3834 18.3263 62.4277C18.3263 62.4277 16.8086 62.0582 16.3913 62.0586C15.974 62.0589 15.1454 61.9526 14.5941 63.6634L14.0696 65.5426C14.0696 65.5426 14.534 63.5517 14.5602 63.1472C14.5863 62.7426 14.816 61.7794 13.5058 61.306L11.8732 60.8065C11.8732 60.8065 13.1938 61.1751 13.9913 61.1595C14.7888 61.144 15.3724 60.2356 16.0294 57.672Z" fill="#33B568" stroke="#33B568" stroke-width="0.277825" stroke-miterlimit="10"/>
<ellipse cx="0.914269" cy="6.02145" rx="0.914269" ry="0.913219" fill="#33B568"/>
<ellipse cx="130.166" cy="92.7853" rx="1.47742" ry="1.47573" fill="#33B568"/>
<ellipse cx="70.9016" cy="2.55401" rx="2.55694" ry="2.55401" fill="#33B568"/>
<defs>
<linearGradient id="paint0_linear_1_956" x1="110.364" y1="0" x2="110.364" y2="36.0636" gradientUnits="userSpaceOnUse">
<stop offset="0.1875" stop-color="#D4F938"/>
<stop offset="1" stop-color="#32D875" stop-opacity="0.96"/>
</linearGradient>
<linearGradient id="paint1_linear_1_956" x1="52.5697" y1="21.39" x2="52.5697" y2="81.7832" gradientUnits="userSpaceOnUse">
<stop offset="0.1875" stop-color="#D4F938"/>
<stop offset="1" stop-color="#32D875" stop-opacity="0.96"/>
</linearGradient>
</defs>
</svg>
