<svg width="106" height="100" viewBox="0 0 106 100" fill="none" xmlns="http://www.w3.org/2000/svg">
<path d="M103.83 61.7743C103.96 61.2667 104.082 60.7591 104.192 60.2476C104.208 60.1851 104.22 60.1187 104.231 60.0563C104.33 59.5994 104.42 59.1387 104.507 58.674C104.531 58.5374 104.558 58.3968 104.582 58.2602C104.672 57.7369 104.759 57.2137 104.834 56.6827C106.109 47.6397 104.684 38.9638 101.162 31.3967L98.8867 26.5121C99.7092 28.2809 100.414 30.116 101.004 31.9941C100.937 31.8496 100.878 31.7052 100.811 31.5607L98.5364 26.6722C98.623 26.8596 98.7017 27.0509 98.7883 27.2383C98.9181 27.5234 99.048 27.8084 99.17 28.0973C99.233 28.2457 99.2881 28.398 99.3511 28.5464C99.4849 28.8783 99.6227 29.2062 99.7525 29.542C99.7958 29.6592 99.8391 29.7802 99.8824 29.8973C100.02 30.2683 100.158 30.6353 100.284 31.0101C100.374 31.2757 100.457 31.5412 100.54 31.8067C100.614 32.037 100.693 32.2674 100.764 32.4978C100.843 32.7516 100.91 33.0093 100.981 33.267C101.051 33.5169 101.126 33.7629 101.189 34.0128C101.252 34.2431 101.303 34.4813 101.358 34.7117C101.425 34.9889 101.5 35.2661 101.563 35.5434C101.63 35.8401 101.689 36.1447 101.748 36.4453C101.791 36.664 101.842 36.8787 101.882 37.0974C101.961 37.523 102.031 37.9525 102.098 38.382C102.114 38.4796 102.134 38.5733 102.145 38.667C102.197 38.9989 102.236 39.3347 102.275 39.6666C102.299 39.8618 102.33 40.057 102.354 40.2562C102.393 40.5959 102.421 40.9395 102.452 41.2831C102.468 41.4744 102.492 41.6657 102.508 41.861C102.539 42.2983 102.563 42.7356 102.582 43.1729C102.586 43.2744 102.594 43.3759 102.602 43.4774C102.614 43.8093 102.618 44.1451 102.626 44.4809C102.626 44.6918 102.637 44.8987 102.641 45.1096C102.641 45.3321 102.634 45.5547 102.634 45.7772C102.634 46.1013 102.634 46.4254 102.622 46.7534C102.614 47.0423 102.594 47.3352 102.578 47.628C102.567 47.8896 102.559 48.1512 102.539 48.4128C102.519 48.7252 102.484 49.0376 102.456 49.3538C102.386 50.1543 102.299 50.9547 102.189 51.7629C102.114 52.2901 102.027 52.8133 101.937 53.3365C101.913 53.4731 101.89 53.6098 101.862 53.7465C101.776 54.215 101.685 54.6836 101.583 55.1443C101.571 55.199 101.559 55.2536 101.547 55.3122C101.433 55.8237 101.311 56.3274 101.185 56.835C101.154 56.9638 101.118 57.0927 101.083 57.2215C100.969 57.6549 100.851 58.0844 100.725 58.51C100.697 58.5999 100.674 58.6936 100.646 58.7834C100.603 58.9278 100.555 59.0684 100.512 59.209C100.441 59.4354 100.37 59.658 100.3 59.8845C100.248 60.0367 100.197 60.189 100.146 60.3413C100.075 60.5521 100 60.763 99.9296 60.9738C99.8745 61.13 99.8155 61.2862 99.7604 61.4424C99.6856 61.6454 99.6108 61.8524 99.5321 62.0554C99.4731 62.2116 99.4101 62.3678 99.3511 62.5239C99.2724 62.727 99.1897 62.9261 99.111 63.1253C99.048 63.2814 98.9851 63.4337 98.9181 63.586C98.8355 63.7851 98.7489 63.9843 98.6623 64.1834C98.5954 64.3357 98.5285 64.4879 98.4616 64.6363C98.3711 64.8355 98.2806 65.0346 98.1861 65.2337C98.1192 65.3782 98.0483 65.5266 97.9814 65.671C97.883 65.8741 97.7846 66.0771 97.6823 66.2801C97.6154 66.4168 97.5446 66.5574 97.4776 66.694C97.4304 66.7877 97.3793 66.8814 97.332 66.9791C97.1116 67.4086 96.8833 67.8342 96.6511 68.2559C96.6 68.3457 96.5527 68.4355 96.5016 68.5253C96.2379 68.9938 95.9663 69.4546 95.6908 69.9153C95.6318 70.0129 95.5688 70.1144 95.5097 70.212C95.25 70.6337 94.9863 71.0476 94.7147 71.4615C94.6793 71.5162 94.6399 71.5747 94.6045 71.6333C94.3054 72.0823 93.9984 72.5275 93.6875 72.9648C93.6127 73.0702 93.5379 73.1717 93.4631 73.2771C93.1719 73.6793 92.8767 74.0776 92.5736 74.4719C92.554 74.4993 92.5343 74.5266 92.5146 74.5539C92.1958 74.9678 91.8652 75.3778 91.5307 75.7839C91.448 75.8854 91.3654 75.983 91.2827 76.0845C90.956 76.475 90.6254 76.8615 90.2909 77.2403C90.2751 77.2559 90.2633 77.2715 90.2515 77.2871C89.9012 77.6815 89.5431 78.0641 89.1849 78.4468C89.0983 78.5405 89.0118 78.6303 88.9212 78.724C88.5395 79.1223 88.1537 79.5127 87.7602 79.8954C87.7247 79.9266 87.6933 79.9618 87.6578 79.993C87.2879 80.3522 86.9061 80.7075 86.5243 81.0589C86.4377 81.137 86.3512 81.2151 86.2646 81.2932C85.8631 81.6564 85.4538 82.0156 85.0405 82.367C84.9618 82.4334 84.8831 82.4997 84.8044 82.5622C84.4226 82.8824 84.0369 83.1947 83.6473 83.5032C83.5489 83.5813 83.4505 83.6633 83.3521 83.7375C82.8247 84.1475 82.2894 84.5457 81.7463 84.9362C81.6872 84.9791 81.6282 85.0221 81.5692 85.065C81.0536 85.4321 80.5262 85.7913 79.9948 86.1427C79.9083 86.1974 79.8256 86.2559 79.739 86.3106C79.2156 86.6503 78.6882 86.9822 78.1529 87.3024C78.0584 87.357 77.9679 87.4117 77.8735 87.4703C77.3343 87.7904 76.7872 88.1028 76.2362 88.4034C76.1417 88.4542 76.0472 88.505 75.9528 88.5557C75.5356 88.7822 75.1145 89.0008 74.6894 89.2156C74.6067 89.2546 74.528 89.2976 74.4454 89.3405C73.9652 89.5787 73.4811 89.8091 72.9931 90.0317C72.8829 90.0824 72.7687 90.1332 72.6546 90.1839C72.202 90.387 71.7415 90.59 71.281 90.7813C71.2298 90.8048 71.1787 90.8243 71.1236 90.8477C70.6237 91.0547 70.1199 91.2499 69.6122 91.4412C69.4941 91.4881 69.3721 91.531 69.2501 91.574C68.7345 91.7653 68.2189 91.9488 67.6994 92.1206C67.6955 92.1206 67.6916 92.1206 67.6837 92.1245C67.1681 92.2963 66.6446 92.4564 66.1212 92.6126C65.9992 92.6477 65.8732 92.6868 65.7512 92.7219C65.2277 92.8742 64.7043 93.0186 64.1769 93.1553C64.1179 93.1709 64.0588 93.1826 63.9958 93.1983C63.5117 93.3193 63.0237 93.4364 62.5317 93.5419C62.4097 93.5692 62.2877 93.5965 62.1657 93.6239C61.6344 93.7371 61.0991 93.8425 60.5638 93.9401C60.4694 93.9557 60.3749 93.9714 60.2844 93.987C59.8082 94.069 59.328 94.1471 58.8478 94.2174C58.7337 94.233 58.6235 94.2525 58.5093 94.2681C57.9701 94.3423 57.427 94.4087 56.8799 94.4672C56.7658 94.479 56.6516 94.4907 56.5375 94.5024C56.0495 94.5492 55.5614 94.5922 55.0734 94.6273C54.9789 94.6351 54.8845 94.643 54.79 94.6469C54.239 94.682 53.688 94.7093 53.133 94.725C53.0071 94.7289 52.8772 94.7328 52.7513 94.7367C52.2357 94.7484 51.724 94.7562 51.2045 94.7523C51.1415 94.7523 51.0825 94.7523 51.0195 94.7523C50.4567 94.7484 49.8939 94.7289 49.3311 94.7054C49.1973 94.7015 49.0634 94.6937 48.9296 94.6859C48.3589 94.6586 47.7843 94.6234 47.2097 94.5727C46.8161 94.5375 46.4265 94.5024 46.0329 94.4594C45.9069 94.4438 45.781 94.4282 45.655 94.4165C45.3913 94.3853 45.1276 94.354 44.8679 94.3189C44.7183 94.2994 44.5727 94.2759 44.4231 94.2564C44.187 94.2213 43.9469 94.19 43.7108 94.151C43.5573 94.1275 43.3998 94.1002 43.2463 94.0768C43.0141 94.0377 42.7858 93.9987 42.5576 93.9557C42.4041 93.9284 42.2506 93.9011 42.101 93.8698C41.8649 93.8269 41.6327 93.78 41.4004 93.7293C41.2588 93.698 41.1131 93.6707 40.9714 93.6395C40.7196 93.5848 40.4637 93.5262 40.2118 93.4677C40.0938 93.4403 39.9718 93.413 39.8537 93.3857C39.4837 93.2959 39.1177 93.2061 38.7517 93.1085C38.7438 93.1085 38.7359 93.1046 38.728 93.1006C38.3699 93.0069 38.0157 92.9054 37.6614 92.8039C37.5434 92.7688 37.4253 92.7336 37.3033 92.6985C37.0632 92.6282 36.8231 92.554 36.583 92.4798C36.4453 92.4369 36.3075 92.39 36.1698 92.3471C35.9494 92.2768 35.7329 92.2026 35.5164 92.1284C35.3747 92.0816 35.2331 92.0308 35.0914 91.98C34.8788 91.9059 34.6663 91.8278 34.4577 91.7497C34.316 91.6989 34.1783 91.6481 34.0405 91.5935C33.824 91.5115 33.6115 91.4295 33.399 91.3436C33.2691 91.2928 33.1353 91.2421 33.0054 91.1874C32.7732 91.0937 32.541 90.9961 32.3088 90.8946C32.2025 90.8477 32.0962 90.8048 31.99 90.7579C31.6515 90.6095 31.3169 90.4612 30.9863 90.3089C30.9745 90.305 30.9627 90.2972 30.9509 90.2933C30.6321 90.1449 30.3133 89.9926 30.0024 89.8403C29.8922 89.7857 29.7859 89.731 29.6797 89.6763C29.4632 89.567 29.2467 89.4577 29.0302 89.3445C28.9043 89.2781 28.7823 89.2117 28.6563 89.1453C28.4596 89.0399 28.2628 88.9345 28.066 88.8251C27.94 88.7549 27.8101 88.6846 27.6842 88.6104C27.4913 88.5011 27.3024 88.3917 27.1135 88.2824C26.9876 88.2082 26.8656 88.1379 26.7396 88.0637C26.5468 87.9505 26.3539 87.8334 26.165 87.7162C26.0469 87.646 25.9288 87.5718 25.8147 87.4976C25.6061 87.3648 25.4014 87.2321 25.1928 87.0993C25.0984 87.0368 25.0039 86.9783 24.9095 86.9158C24.6103 86.7167 24.3152 86.5175 24.02 86.3106C24.0042 86.2989 23.9885 86.2872 23.9728 86.2755C23.6972 86.0802 23.4217 85.885 23.1502 85.6859C23.0557 85.6156 22.9613 85.5453 22.8707 85.475C22.6779 85.3305 22.485 85.1861 22.2961 85.0416C22.1859 84.9596 22.0796 84.8737 21.9734 84.7878C21.8002 84.6512 21.627 84.5145 21.4578 84.3778C21.3476 84.288 21.2374 84.1982 21.1272 84.1045C20.9619 83.9679 20.7966 83.8273 20.6313 83.6906C20.5211 83.5969 20.4148 83.5071 20.3085 83.4134C20.1432 83.2689 19.9779 83.1245 19.8126 82.9761C19.7103 82.8863 19.6119 82.7965 19.5096 82.7067C19.3285 82.5427 19.1514 82.3787 18.9743 82.2108C18.8916 82.1366 18.8129 82.0585 18.7303 81.9843C17.3882 80.7075 16.1287 79.3487 14.9598 77.9236C12.6377 75.085 10.6737 71.9652 9.123 68.6346L11.3979 73.5192C11.4727 73.6793 11.5514 73.8355 11.6262 73.9917C10.5596 72.3283 9.60316 70.5947 8.76484 68.7947L11.0397 73.6793C17.6952 87.9661 31.8365 98.325 49.4373 99.8204C50.0159 99.8712 50.5905 99.9063 51.1652 99.9336C51.299 99.9415 51.4367 99.9454 51.5705 99.9532C52.1373 99.9766 52.704 99.9961 53.2708 100C53.3298 100 53.3889 100 53.4479 100C53.9714 100 54.4909 100 55.0104 99.9844C55.1403 99.9844 55.2702 99.9805 55.3961 99.9727C55.955 99.9532 56.51 99.9297 57.0649 99.8946C57.1594 99.8868 57.2499 99.879 57.3444 99.8751C57.8363 99.8399 58.3283 99.797 58.8203 99.7501C58.9383 99.7384 59.0525 99.7267 59.1706 99.715C59.7176 99.6564 60.2647 99.5901 60.8118 99.5159C60.922 99.5002 61.0361 99.4846 61.1463 99.4651C61.6265 99.3948 62.1067 99.3206 62.5868 99.2347C62.6852 99.2191 62.7836 99.2035 62.882 99.184C63.4212 99.0864 63.9604 98.9809 64.4918 98.8677C64.6138 98.8404 64.7318 98.813 64.8538 98.7896C65.3379 98.6842 65.8221 98.571 66.3022 98.4499C66.3731 98.4304 66.4439 98.4148 66.5147 98.3992C67.0461 98.2625 67.5735 98.118 68.0969 97.9657C68.2229 97.9306 68.3449 97.8916 68.4669 97.8564C68.9746 97.7041 69.4823 97.548 69.9861 97.3801C70.0097 97.3723 70.0334 97.3644 70.057 97.3566C70.5804 97.1848 71.096 96.9974 71.6116 96.81C71.7336 96.7631 71.8556 96.7202 71.9776 96.6733C72.4893 96.482 73.0009 96.2829 73.5047 96.0759C73.5401 96.0603 73.5795 96.0447 73.6149 96.0291C74.0912 95.8299 74.5634 95.6269 75.0318 95.4161C75.1499 95.3653 75.264 95.3106 75.3782 95.2599C75.8701 95.0334 76.3582 94.803 76.8423 94.5649C76.9131 94.5297 76.984 94.4946 77.0548 94.4555C77.4877 94.2369 77.9167 94.0143 78.3457 93.7839C78.4087 93.7488 78.4756 93.7176 78.5425 93.6824C78.578 93.6629 78.6095 93.6434 78.6449 93.6239C79.2195 93.3115 79.7863 92.9874 80.3451 92.6555C80.4357 92.6009 80.5262 92.5501 80.6167 92.4954C81.1717 92.1596 81.7227 91.816 82.2658 91.4607C82.3524 91.4022 82.439 91.3475 82.5295 91.2889C83.0726 90.9297 83.6118 90.5588 84.1432 90.18C84.218 90.1254 84.2927 90.0707 84.3715 90.016C84.9107 89.6256 85.442 89.2273 85.9655 88.8173C85.9851 88.8017 86.0009 88.79 86.0205 88.7783C86.0678 88.7392 86.115 88.7002 86.1622 88.6611C86.5558 88.3488 86.9455 88.0325 87.3272 87.7123C87.406 87.646 87.4847 87.5835 87.5594 87.5171C87.9766 87.1618 88.3899 86.8026 88.7953 86.4355C88.8819 86.3575 88.9685 86.2794 89.055 86.1974C89.4408 85.842 89.8265 85.4828 90.2004 85.1158C90.2319 85.0846 90.2633 85.0533 90.2948 85.026C90.6923 84.6394 91.082 84.2412 91.4638 83.8429C91.507 83.7961 91.5543 83.7531 91.5976 83.7062C91.6409 83.6594 91.6842 83.6125 91.7275 83.5657C92.0895 83.1791 92.4516 82.7926 92.8019 82.3982C92.8177 82.3787 92.8334 82.3592 92.8492 82.3436C93.1876 81.9648 93.5182 81.5744 93.8449 81.1839C93.9276 81.0824 94.0141 80.9848 94.0968 80.8832C94.4313 80.4772 94.7619 80.0633 95.0847 79.6455C95.1083 79.6143 95.1319 79.583 95.1555 79.5518C95.4586 79.1574 95.7538 78.7592 96.045 78.357C96.0844 78.2984 96.1316 78.2438 96.171 78.1891C96.2064 78.1422 96.2379 78.0915 96.2694 78.0446C96.5842 77.6034 96.8951 77.1544 97.1943 76.7014C97.2336 76.6429 97.269 76.5843 97.3084 76.5257C97.58 76.1119 97.8476 75.6941 98.1074 75.2685C98.1703 75.1709 98.2294 75.0693 98.2924 74.9717C98.5718 74.511 98.8473 74.0424 99.111 73.57C99.1622 73.4763 99.2133 73.3826 99.2645 73.2928C99.5006 72.8672 99.7289 72.4377 99.9533 72.0042C99.9847 71.9457 100.016 71.891 100.044 71.8324C100.063 71.7973 100.079 71.7622 100.095 71.727C100.166 71.5904 100.233 71.4498 100.304 71.3092C100.406 71.1062 100.504 70.8993 100.607 70.6962C100.677 70.5478 100.744 70.3995 100.815 70.255C100.91 70.0559 101 69.8528 101.091 69.6537C101.158 69.5014 101.225 69.3491 101.295 69.193C101.382 68.9938 101.469 68.7947 101.555 68.5956C101.622 68.4394 101.685 68.2832 101.752 68.1231C101.835 67.924 101.913 67.7209 101.996 67.5179C102.059 67.3617 102.118 67.2016 102.181 67.0415C102.26 66.8385 102.334 66.6316 102.409 66.4285C102.468 66.2723 102.523 66.1122 102.582 65.9522C102.657 65.7413 102.728 65.5305 102.799 65.3196C102.85 65.1634 102.905 65.0073 102.956 64.8511C103.027 64.6324 103.098 64.4099 103.165 64.1912C103.212 64.0428 103.259 63.8905 103.303 63.7422C103.314 63.707 103.326 63.6719 103.334 63.6368C103.354 63.5665 103.373 63.5001 103.393 63.4298C103.515 63.0081 103.633 62.5864 103.743 62.1647C103.779 62.0359 103.81 61.907 103.846 61.7743H103.83Z" fill="#33B568"/>
<path d="M60.3803 0.742189C73.9076 1.87842 85.4001 8.15307 93.0513 17.3913C100.699 26.6256 104.504 38.8118 102.651 51.7671C100.797 64.7225 93.6377 75.9872 83.5621 83.7378C73.4825 91.4805 60.4865 95.7053 46.9592 94.5691C33.4319 93.4328 21.9354 87.1543 14.2882 77.9239C6.63699 68.6856 2.83108 56.4995 4.68483 43.5441C6.53859 30.5887 13.7017 19.3201 23.7774 11.5774C33.8569 3.8268 46.849 -0.394042 60.3803 0.742189Z" fill="#F2FFBD"/>
<path d="M59.781 4.9187C72.1044 5.9538 82.574 11.67 89.5442 20.0859C96.5108 28.4984 99.978 39.5999 98.2892 51.4022C96.6004 63.2045 90.0784 73.4665 80.8996 80.5273C71.7171 87.5809 59.8778 91.4296 47.5545 90.3945C35.2312 89.3594 24.758 83.6397 17.7914 75.2308C10.8212 66.8149 7.354 55.7133 9.04277 43.911C10.7315 32.1088 17.2571 21.8431 26.436 14.7895C35.6184 7.72877 47.4541 3.8836 59.781 4.9187Z" fill="url(#paint0_linear_1_1148)"/>
<path d="M50.1953 67.5807L52.3148 39.0936L45.8651 42.3412L46.5129 33.6346L52.9855 30.0795L59.9641 30.5987L57.1738 68.1L50.1953 67.5807Z" fill="#33B568"/>
<g opacity="0.7">
<path fill-rule="evenodd" clip-rule="evenodd" d="M67.3233 79.1009C67.9885 78.4996 68.6379 77.8788 69.2322 77.1838C70.0154 76.6176 71.1175 75.5283 72.0502 73.5096C73.0066 71.4402 73.2821 67.6762 73.2821 67.6762C73.2821 67.6762 68.449 71.7447 68.264 76.6723C68.2522 77.0159 68.2404 77.2502 68.2365 77.4103C67.7051 77.8944 67.158 78.3552 66.607 78.8042C63.3049 81.5218 58.2041 82.6541 58.2041 82.6541C58.2041 82.6541 58.9952 82.865 59.806 83.396C61.7857 82.904 64.7415 81.0728 66.2961 79.9365C66.4653 80.3777 67.2761 82.0411 69.8265 81.8888C71.5268 81.7834 74.5731 79.8272 74.5731 79.8272C74.5731 79.8272 71.2158 76.5864 67.3273 79.1009H67.3233Z" fill="#33B568"/>
<path fill-rule="evenodd" clip-rule="evenodd" d="M73.6803 75.1379C73.0191 75.8642 72.9285 75.9618 72.9207 75.9696C72.9207 75.9735 74.1172 77.6993 77.1438 76.485C78.9031 75.7783 81.6266 72.9709 81.6266 72.9709C81.6266 72.9709 77.1831 71.2841 73.6842 75.1379H73.6803Z" fill="#33B568"/>
<path fill-rule="evenodd" clip-rule="evenodd" d="M74.2659 72.4828C74.4509 73.3106 74.4706 73.4277 74.4745 73.4394C74.4784 73.4355 76.6038 72.065 77.4736 68.3518C77.9773 66.2004 77.3634 62.8034 77.3634 62.8034C77.3634 62.8034 73.2859 68.1019 74.2698 72.4828H74.2659Z" fill="#33B568"/>
<path fill-rule="evenodd" clip-rule="evenodd" d="M79.5676 69.191C79.052 70.0656 78.9772 70.1827 78.9693 70.1945C78.9733 70.1945 80.6381 71.276 83.5191 69.1207C85.1958 67.8673 87.3762 64.4352 87.3762 64.4352C87.3762 64.4352 82.3108 64.5602 79.5676 69.191Z" fill="#33B568"/>
<path fill-rule="evenodd" clip-rule="evenodd" d="M79.9887 67.4139C79.9887 67.4139 81.8896 65.446 81.9054 61.889C81.9133 59.8274 80.4491 57.0746 80.4491 57.0746C80.4491 57.0746 77.4579 63.1736 79.54 66.6564C79.9335 67.3163 79.9808 67.4061 79.9847 67.4178L79.9887 67.4139Z" fill="#33B568"/>
<path fill-rule="evenodd" clip-rule="evenodd" d="M84.3062 61.8717C83.9756 62.8205 83.9284 62.9494 83.9205 62.965C83.9245 62.965 85.9317 63.3125 88.4349 60.3958C89.8911 58.7012 91.3513 54.9216 91.3513 54.9216C91.3513 54.9216 86.0655 56.8465 84.3062 61.8756" fill="#33B568"/>
<path fill-rule="evenodd" clip-rule="evenodd" d="M84.3211 60.168C84.3211 60.168 85.8364 57.7667 84.9941 54.6469C84.5022 52.8391 82.2981 50.9532 82.2981 50.9532C82.2981 50.9532 80.6451 57.3606 83.6678 59.6604C84.2385 60.0938 84.3132 60.1563 84.3211 60.1641" fill="#33B568"/>
<path fill-rule="evenodd" clip-rule="evenodd" d="M87.5023 53.7774C87.3843 54.7262 87.3646 54.855 87.3646 54.8668C87.3685 54.8668 89.5568 54.4529 91.4775 51.0051C92.5913 49.006 93.1974 45.1795 93.1974 45.1795C93.1974 45.1795 88.1203 48.7483 87.5023 53.7735" fill="#33B568"/>
<path fill-rule="evenodd" clip-rule="evenodd" d="M86.4004 47.5445C85.5424 46.0335 82.8857 44.9285 82.8857 44.9285C82.8857 44.9285 82.3741 51.2148 85.9635 52.4721C86.6405 52.7103 86.731 52.7454 86.7389 52.7493C86.7389 52.7415 87.8685 50.145 86.3965 47.5445H86.4004Z" fill="#33B568"/>
<path fill-rule="evenodd" clip-rule="evenodd" d="M89.0015 46.5608C89.0015 46.5608 91.2016 45.4168 92.3705 41.7191C93.0475 39.5755 92.7405 36.0185 92.7405 36.0185C92.7405 36.0185 88.2931 40.9421 88.8795 45.5534C88.9897 46.4241 89.0015 46.5452 89.0015 46.5569V46.5608Z" fill="#33B568"/>
<path fill-rule="evenodd" clip-rule="evenodd" d="M87.1431 45.2735C87.9027 45.2735 88.005 45.2735 88.0168 45.2775C88.0168 45.2696 88.6387 42.595 86.5331 40.7325C85.309 39.6549 82.2903 39.4987 82.2903 39.4987C82.2903 39.4987 83.1128 45.2814 87.147 45.2735H87.1431Z" fill="#33B568"/>
<path fill-rule="evenodd" clip-rule="evenodd" d="M88.6838 38.7169C88.6838 38.7169 90.7068 36.9364 91.0217 33.2895C91.2027 31.1772 89.9984 28.1746 89.9984 28.1746C89.9984 28.1746 86.5624 34.0548 88.3099 37.8813C88.6405 38.6037 88.6799 38.7052 88.6838 38.7169Z" fill="#33B568"/>
<path fill-rule="evenodd" clip-rule="evenodd" d="M80.4135 34.4146C80.4135 34.4146 82.2594 39.5452 86.4589 38.5418C87.2539 38.3544 87.3602 38.3309 87.372 38.3309C87.372 38.3231 87.5609 35.7031 85.0459 34.5083C83.5858 33.8133 80.4135 34.4146 80.4135 34.4146Z" fill="#33B568"/>
<path fill-rule="evenodd" clip-rule="evenodd" d="M85.8186 31.3731C86.3421 31.8885 86.409 31.9626 86.4168 31.9705C86.4208 31.9665 88.0935 29.6941 87.5189 26.3986C87.1843 24.4854 85.1771 22.2832 85.1771 22.2832C85.1771 22.2832 83.0439 28.6438 85.8186 31.3731Z" fill="#33B568"/>
<path fill-rule="evenodd" clip-rule="evenodd" d="M85.1128 32.464C85.1128 32.464 85.101 29.8987 82.4326 29.0123C80.8819 28.4969 77.6821 29.4301 77.6821 29.4301C77.6821 29.4301 79.9727 34.2054 84.1958 32.7724C84.9948 32.503 85.101 32.4718 85.1128 32.4679" fill="#33B568"/>
<path fill-rule="evenodd" clip-rule="evenodd" d="M82.12 27.6549C82.8756 27.7017 82.974 27.7135 82.9858 27.7174C82.9858 27.7096 83.7061 25.0349 81.691 23.0124C80.5181 21.841 77.5308 21.4896 77.5308 21.4896C77.5308 21.4896 78.1212 27.405 82.12 27.6549Z" fill="#33B568"/>
</g>
<g opacity="0.7">
<path fill-rule="evenodd" clip-rule="evenodd" d="M22.0739 75.044C22.0739 75.044 24.4393 77.0002 26.1042 77.1056C28.5995 77.2618 29.9849 75.5984 30.3116 75.1533C31.4687 76.2896 33.7908 78.1169 35.5973 78.6128C36.597 78.0818 37.459 77.8709 37.459 77.8709C37.459 77.8709 32.7517 76.7386 30.3942 74.021C30.0006 73.572 29.611 73.1112 29.2489 72.6271C29.2961 72.467 29.3709 72.2327 29.4772 71.8891C31.0043 66.9576 27.584 62.893 27.584 62.893C27.584 62.893 26.5529 66.6609 26.789 68.7264C27.0212 70.7451 27.7454 71.8344 28.3318 72.4006C28.6821 73.0956 29.119 73.7203 29.5716 74.3177C26.5568 71.8032 22.0739 75.044 22.0739 75.044Z" fill="#33B568"/>
<path fill-rule="evenodd" clip-rule="evenodd" d="M17.4073 68.1877C17.4073 68.1877 19.1548 70.9951 20.6662 71.7018C23.2717 72.9162 25.0625 71.1942 25.0664 71.1864C25.0585 71.1786 25.0034 71.081 24.5941 70.3548C22.4333 66.5009 17.4073 68.1877 17.4073 68.1877Z" fill="#33B568"/>
<path fill-rule="evenodd" clip-rule="evenodd" d="M25.2003 58.015C25.2003 58.015 23.4056 61.412 23.1615 63.5634C22.7404 67.2766 24.3895 68.6432 24.3934 68.6511C24.4013 68.6393 24.4603 68.5222 24.9326 67.6944C27.4358 63.3135 25.2003 58.015 25.2003 58.015Z" fill="#33B568"/>
<path fill-rule="evenodd" clip-rule="evenodd" d="M20.7768 64.4035C19.6433 59.7726 14.6212 59.6477 14.6212 59.6477C14.6212 59.6477 15.6091 63.0837 16.8528 64.3332C18.986 66.4885 21.0247 65.4069 21.0287 65.4069C21.0247 65.3952 20.9932 65.2781 20.7807 64.4035" fill="#33B568"/>
<path fill-rule="evenodd" clip-rule="evenodd" d="M21.6819 61.8685C24.9723 58.3856 24.1024 52.2867 24.1024 52.2867C24.1024 52.2867 21.6819 55.0394 20.9735 57.101C19.7573 60.6581 20.9695 62.6221 20.9735 62.626C20.9814 62.6182 21.064 62.5245 21.6859 61.8646L21.6819 61.8685Z" fill="#33B568"/>
<path fill-rule="evenodd" clip-rule="evenodd" d="M18.58 57.0868C18.5721 52.0577 13.9554 50.1328 13.9554 50.1328C13.9554 50.1328 14.101 53.9163 14.9669 55.607C16.4586 58.5276 18.5839 58.1801 18.5879 58.1762C18.5879 58.1606 18.5839 58.0356 18.58 57.0829" fill="#33B568"/>
<path fill-rule="evenodd" clip-rule="evenodd" d="M19.1582 55.3809C19.1582 55.3809 19.2644 55.3106 19.9847 54.8772C23.8063 52.5735 24.377 46.17 24.377 46.17C24.377 46.17 21.5196 48.0559 20.4019 49.8637C18.4773 52.9796 19.1542 55.377 19.1582 55.3848" fill="#33B568"/>
<path fill-rule="evenodd" clip-rule="evenodd" d="M18.1979 48.9882C19.3275 43.963 15.4901 40.3942 15.4901 40.3942C15.4901 40.3942 14.7699 44.2168 15.187 46.2198C15.9112 49.6636 17.9539 50.0775 17.9578 50.0814C17.9578 50.0697 17.9854 49.9409 18.1979 48.9921" fill="#33B568"/>
<path fill-rule="evenodd" clip-rule="evenodd" d="M19.3157 47.9662C19.3157 47.9662 19.4299 47.9272 20.1895 47.689C24.2158 46.4317 25.8885 40.1453 25.8885 40.1453C25.8885 40.1453 22.8461 41.2503 21.4647 42.7614C19.0874 45.3619 19.3157 47.9584 19.3157 47.9662Z" fill="#33B568"/>
<path fill-rule="evenodd" clip-rule="evenodd" d="M19.6735 40.7703C21.8579 36.159 19.1265 31.2353 19.1265 31.2353C19.1265 31.2353 17.5836 34.7924 17.5167 36.936C17.4026 40.6297 19.1973 41.7738 19.2012 41.7777C19.2052 41.766 19.2603 41.6449 19.6696 40.7742L19.6735 40.7703Z" fill="#33B568"/>
<path fill-rule="evenodd" clip-rule="evenodd" d="M28.3651 34.7129C28.3651 34.7129 25.2913 34.8691 23.6933 35.9468C20.9422 37.8093 20.6313 40.4839 20.6313 40.4917C20.6431 40.4917 20.7454 40.4839 21.505 40.4878C25.5313 40.4956 28.3651 34.7129 28.3651 34.7129Z" fill="#33B568"/>
<path fill-rule="evenodd" clip-rule="evenodd" d="M22.9104 33.096C25.9882 29.2695 24.591 23.3892 24.591 23.3892C24.591 23.3892 22.3476 26.3879 21.7926 28.5042C20.8402 32.1472 22.2413 33.9238 22.2452 33.9316C22.2531 33.9199 22.3279 33.8183 22.9104 33.096Z" fill="#33B568"/>
<path fill-rule="evenodd" clip-rule="evenodd" d="M32.0086 29.6297C32.0086 29.6297 29.0488 29.0323 27.3447 29.7234C24.4164 30.9221 23.6962 33.5382 23.6922 33.546C23.704 33.546 23.8024 33.5694 24.5306 33.7569C28.3798 34.7564 32.0086 29.6297 32.0086 29.6297Z" fill="#33B568"/>
<path fill-rule="evenodd" clip-rule="evenodd" d="M27.6655 26.5873C31.3887 23.858 31.4635 17.4975 31.4635 17.4975C31.4635 17.4975 28.6966 19.6996 27.6969 21.6129C25.977 24.9122 26.8625 27.1808 26.8625 27.1847C26.8704 27.1769 26.9649 27.1027 27.6694 26.5873" fill="#33B568"/>
<path fill-rule="evenodd" clip-rule="evenodd" d="M27.9871 27.6806C27.9871 27.6806 28.0933 27.7157 28.7978 27.9851C32.525 29.4181 36.4726 24.6428 36.4726 24.6428C36.4726 24.6428 33.5956 23.7135 31.8677 24.225C28.8923 25.1114 27.991 27.6689 27.9871 27.6767" fill="#33B568"/>
<path fill-rule="evenodd" clip-rule="evenodd" d="M32.651 22.8669C36.7324 22.6131 39.3772 16.7016 39.3772 16.7016C39.3772 16.7016 36.268 17.053 34.6897 18.2244C31.974 20.247 31.7654 22.9216 31.7615 22.9294C31.7733 22.9294 31.8756 22.9177 32.647 22.8669" fill="#33B568"/>
</g>
<path d="M92.0717 3.35447C92.0717 3.35447 90.6868 8.74209 90.6994 10.0409C90.7119 11.3398 89.86 13.7743 93.3668 15.1983C93.3668 15.1983 97.442 16.6781 98.5599 16.8034C98.5599 16.8034 94.2729 15.7586 93.0941 15.7596C91.9154 15.7605 89.5749 15.46 88.0176 20.298L86.5359 25.6123C86.5359 25.6123 87.8478 19.9822 87.9217 18.8381C87.9957 17.6941 88.6445 14.97 84.9436 13.6314L80.3318 12.2187C80.3318 12.2187 84.0622 13.2611 86.3149 13.2171C88.5675 13.1731 90.2161 10.6042 92.0717 3.35447Z" fill="#33B568" stroke="#33B568" stroke-width="0.49391" stroke-miterlimit="10"/>
<path d="M5.42716 70.8871C5.42716 70.8871 4.79546 73.3445 4.80119 73.9369C4.80692 74.5294 4.41833 75.6398 6.01784 76.2893C6.01784 76.2893 7.87665 76.9643 8.38652 77.0214C8.38652 77.0214 6.43116 76.5449 5.8935 76.5453C5.35583 76.5458 4.28831 76.4087 3.578 78.6154L2.90218 81.0393C2.90218 81.0393 3.50052 78.4713 3.53425 77.9495C3.56798 77.4277 3.86393 76.1852 2.17587 75.5746L0.0723348 74.9303C0.0723348 74.9303 1.77386 75.4057 2.80134 75.3857C3.82882 75.3656 4.58074 74.1939 5.42716 70.8871Z" fill="#33B568" stroke="#33B568" stroke-width="0.49391" stroke-miterlimit="10"/>
<ellipse cx="32.3161" cy="1.17794" rx="1.17794" ry="1.17794" fill="#33B568"/>
<ellipse cx="99.6606" cy="82.4221" rx="1.90352" ry="1.90352" fill="#33B568"/>
<ellipse cx="3.71758" cy="68.1467" rx="0.503463" ry="0.503463" fill="#33B568"/>
<defs>
<linearGradient id="paint0_linear_1_1148" x1="54.0521" y1="7.08662" x2="54.0521" y2="90.5601" gradientUnits="userSpaceOnUse">
<stop offset="0.4375" stop-color="#D4F938"/>
<stop offset="1" stop-color="#32D875" stop-opacity="0.96"/>
</linearGradient>
</defs>
</svg>
