<svg width="95" height="105" viewBox="0 0 95 105" fill="none" xmlns="http://www.w3.org/2000/svg">
<path d="M72.1019 59.0553L75.1871 57.2622C89.7364 65.6616 89.8125 79.263 75.3586 87.6625C60.9192 96.0535 37.4222 96.0632 22.8741 87.6625C8.34168 79.2715 8.2644 65.652 22.7038 57.261C37.1577 48.8615 60.6547 48.87 75.1883 57.261L72.1031 59.0541C59.2902 51.6545 38.5536 51.646 25.8108 59.0541C13.0775 66.4513 13.1452 78.4721 25.9617 85.8693C38.7891 93.2774 59.5245 93.269 72.2553 85.8693C85.003 78.4625 84.9354 66.4622 72.1044 59.0553H72.1019Z" fill="#58F28A"/>
<path d="M70.7736 52.03C74.6509 54.4124 78.5379 57.5 80.3999 61.6696C92.143 87.9861 49.0022 99.1761 25.9604 85.8693C20.8877 82.9423 17.8133 79.2908 16.7374 75.4871C15.3307 70.3842 15.7896 64.983 17.9643 61.0368C18.5234 60.0225 19.8323 57.6486 22.839 55.0971C25.1224 53.159 27.7451 51.541 30.6323 50.2876C36.7121 47.648 43.8437 46.4235 51.2566 46.7447C61.6207 47.1939 68.3586 50.5894 70.7748 52.0288C69.3995 51.2355 68.256 52.1254 68.1859 52.181C57.5707 46.0468 40.3636 46.0408 29.8051 52.181C19.2515 58.3079 19.307 68.2867 29.9295 74.4137C40.558 80.5551 57.7651 80.5478 68.3115 74.4137C78.8796 68.2759 78.8241 58.3199 68.1859 52.1822C68.256 52.1278 69.3995 51.2367 70.7748 52.03H70.7736Z" fill="#28A45A"/>
<path d="M86.149 72.569C84.921 79.7271 90.2485 89.6891 75.25 98.4049C52.1805 111.812 11.7614 102.327 11.8158 83.0997L11.9245 72.3577C11.9088 77.8953 15.5615 83.4414 22.8742 87.6641C45.8193 100.912 86.0947 91.8433 86.149 72.569Z" fill="#28A45A"/>
<path d="M68.1967 47.9137C78.8349 54.0515 78.8904 64.0075 68.3223 70.1452C57.7759 76.2794 40.5688 76.2867 29.9403 70.1452C19.3178 64.0183 19.2611 54.0395 29.8159 47.9125C40.3744 41.7723 57.5815 41.7784 68.1967 47.9125V47.9137Z" fill="#58F28A"/>
<circle cx="48.9831" cy="45.7943" r="35.1076" fill="url(#paint0_linear_1_1821)"/>
<path d="M5.94418 31.5581C5.94418 31.5581 5.05569 33.9929 5.00213 34.5957C4.94856 35.1985 4.44222 36.2883 6.0031 37.1089C6.0031 37.1089 7.82503 37.9814 8.3376 38.0906C8.3376 38.0906 6.39764 37.4102 5.85104 37.3567C5.30443 37.3033 4.23297 37.0569 3.2897 39.2289L2.3597 41.6253C2.3597 41.6253 3.22537 39.0747 3.31197 38.5477C3.39857 38.0206 3.82398 36.7872 2.16917 35.9973L0.0954088 35.1314C0.0954088 35.1314 1.77743 35.7853 2.82394 35.8679C3.87044 35.9505 4.75227 34.8347 5.94418 31.5581Z" fill="#33B568" stroke="#33B568" stroke-width="0.49391" stroke-miterlimit="10"/>
<circle cx="27.5374" cy="1.20342" r="1.20325" transform="rotate(5.63183 27.5374 1.20342)" fill="white"/>
<circle cx="7.80435" cy="60.3447" r="1.20325" transform="rotate(5.63183 7.80435 60.3447)" fill="#33B568"/>
<circle cx="11.9247" cy="100.979" r="1.20325" transform="rotate(5.63183 11.9247 100.979)" fill="white"/>
<circle cx="94.3313" cy="85.1644" r="0.668644" transform="rotate(5.63183 94.3313 85.1644)" fill="white"/>
<circle cx="70.1679" cy="6.16233" r="1.94441" transform="rotate(5.63183 70.1679 6.16233)" fill="#33B568"/>
<path d="M83.3703 15.733C83.3703 15.733 81.4224 21.071 81.3049 22.3926C81.1875 23.7142 80.0774 26.1036 83.4995 27.9028C83.4995 27.9028 87.4939 29.8155 88.6176 30.055C88.6176 30.055 84.3645 28.5632 83.1661 28.446C81.9677 28.3288 79.6186 27.7886 77.5506 32.5507L75.5116 37.8044C75.5116 37.8044 77.4095 32.2126 77.5994 31.057C77.7893 29.9015 78.7219 27.1973 75.0939 25.4655L70.5474 23.5671C70.5474 23.5671 74.2351 25.0008 76.5294 25.1819C78.8238 25.3629 80.7571 22.9168 83.3703 15.733Z" fill="white" stroke="white" stroke-width="0.49391" stroke-miterlimit="10"/>
<defs>
<linearGradient id="paint0_linear_1_1821" x1="49.3206" y1="12.6253" x2="49.3206" y2="80.9293" gradientUnits="userSpaceOnUse">
<stop offset="0.4375" stop-color="#D4F938"/>
<stop offset="1" stop-color="#32D875" stop-opacity="0.96"/>
</linearGradient>
</defs>
</svg>
