<svg width="22" height="25" viewBox="0 0 22 25" fill="none" xmlns="http://www.w3.org/2000/svg">
<g clip-path="url(#clip0_1_2256)">
<path d="M11.0045 6.8169C7.88125 6.8169 5.36206 9.29673 5.36206 12.3711C5.36206 15.4455 7.88125 17.9254 11.0045 17.9254C14.1277 17.9254 16.6469 15.4455 16.6469 12.3711C16.6469 9.29673 14.1277 6.8169 11.0045 6.8169ZM11.0045 15.9821C8.98616 15.9821 7.33616 14.3627 7.33616 12.3711C7.33616 10.3795 8.98125 8.76016 11.0045 8.76016C13.0277 8.76016 14.6728 10.3795 14.6728 12.3711C14.6728 14.3627 13.0228 15.9821 11.0045 15.9821ZM18.1937 6.5897C18.1937 7.30996 17.6045 7.88521 16.8777 7.88521C16.146 7.88521 15.5616 7.30513 15.5616 6.5897C15.5616 5.87427 16.1509 5.2942 16.8777 5.2942C17.6045 5.2942 18.1937 5.87427 18.1937 6.5897ZM21.9308 7.90454C21.8473 6.16915 21.4446 4.63194 20.1531 3.36544C18.8665 2.09894 17.3049 1.70255 15.542 1.61554C13.725 1.51403 8.27902 1.51403 6.46206 1.61554C4.70402 1.69772 3.14242 2.0941 1.8509 3.3606C0.559385 4.62711 0.161618 6.16431 0.0732248 7.89971C-0.0299001 9.68828 -0.0299001 15.0492 0.0732248 16.8377C0.156707 18.5731 0.559385 20.1103 1.8509 21.3768C3.14242 22.6433 4.69911 23.0397 6.46206 23.1267C8.27902 23.2282 13.725 23.2282 15.542 23.1267C17.3049 23.0446 18.8665 22.6482 20.1531 21.3768C21.4397 20.1103 21.8424 18.5731 21.9308 16.8377C22.0339 15.0492 22.0339 9.69311 21.9308 7.90454ZM19.5835 18.7568C19.2004 19.7043 18.4589 20.4342 17.4915 20.8161C16.0429 21.3817 12.6054 21.2512 11.0045 21.2512C9.40357 21.2512 5.96117 21.3768 4.51742 20.8161C3.55492 20.439 2.8134 19.7091 2.42545 18.7568C1.8509 17.3308 1.98349 13.947 1.98349 12.3711C1.98349 10.7953 1.85581 7.40664 2.42545 5.98545C2.80849 5.03799 3.55001 4.30806 4.51742 3.92618C5.96608 3.3606 9.40357 3.49112 11.0045 3.49112C12.6054 3.49112 16.0478 3.36544 17.4915 3.92618C18.454 4.30323 19.1955 5.03316 19.5835 5.98545C20.158 7.41148 20.0254 10.7953 20.0254 12.3711C20.0254 13.947 20.158 17.3356 19.5835 18.7568Z" fill="white"/>
</g>
<defs>
<clipPath id="clip0_1_2256">
<rect width="21.3531" height="24.0222" fill="white" transform="scale(1.03029)"/>
</clipPath>
</defs>
</svg>
