<svg width="10" height="13" viewBox="0 0 10 13" fill="none" xmlns="http://www.w3.org/2000/svg">
<path d="M6.42866 0.0614978C6.42866 0.0614978 5.67883 2.97847 5.68563 3.68169C5.69243 4.3849 5.23116 5.70301 7.12981 6.474C7.12981 6.474 9.33625 7.27518 9.94147 7.34302C9.94147 7.34302 7.62042 6.77735 6.98221 6.77788C6.34399 6.7784 5.07682 6.61567 4.23368 9.23509L3.43146 12.1123C3.43146 12.1123 4.14171 9.0641 4.18175 8.44469C4.22179 7.82528 4.57309 6.35038 2.56932 5.62564L0.0723946 4.86076C0.0723946 4.86076 2.09213 5.42518 3.31177 5.40134C4.53141 5.37751 5.42395 3.98666 6.42866 0.0614978Z" fill="white" stroke="white" stroke-width="0.49391" stroke-miterlimit="10"/>
</svg>
