<svg width="109" height="97" viewBox="0 0 109 97" fill="none" xmlns="http://www.w3.org/2000/svg">
<path d="M32.9243 7.41768C25.1046 7.64733 19.4036 14.3836 20.1658 22.4824C20.9279 30.5812 27.8636 36.9347 35.6833 36.705C43.503 36.4754 49.204 29.7391 48.4571 21.6556C47.7101 13.5722 40.744 7.20335 32.9243 7.41768Z" fill="url(#paint0_linear_1_1734)"/>
<path d="M14.5568 24.4881C14.5568 24.289 14.5873 24.09 14.6026 23.891C14.6331 23.5542 14.6331 23.2174 14.6788 22.8959C14.6788 22.8193 14.7093 22.7581 14.7245 22.6815C14.7703 22.4213 14.816 22.1763 14.8769 21.9314C14.9227 21.6864 14.9684 21.4261 15.0294 21.1965C15.0446 21.1046 15.0904 21.0281 15.1056 20.9515C15.1971 20.6607 15.2885 20.3698 15.3952 20.0789C15.5019 19.788 15.5934 19.5124 15.7153 19.2369C15.8373 18.9613 15.9745 18.701 16.1116 18.4255C16.2031 18.2417 16.2946 18.0274 16.386 17.8437C16.4318 17.7671 16.4775 17.7059 16.5232 17.6447C16.6909 17.3538 16.889 17.0782 17.0872 16.8179C17.2092 16.6495 17.3006 16.4658 17.4226 16.3127C17.4683 16.2515 17.5293 16.2056 17.575 16.1443C17.6969 15.9912 17.8494 15.8381 17.9866 15.685C18.139 15.5166 18.2762 15.3329 18.4438 15.1645C18.5353 15.0726 18.642 14.9961 18.7335 14.9042C18.8554 14.7818 18.9926 14.6746 19.1145 14.5521C19.2212 14.4603 19.3279 14.3531 19.4346 14.2459C19.709 14.0316 19.9834 13.8173 20.273 13.6182L25.8368 9.74489C25.4252 10.0358 25.0441 10.342 24.6783 10.6788C24.5411 10.8013 24.4192 10.9084 24.2972 11.0309C24.0381 11.2759 23.7942 11.5361 23.5503 11.8117C23.4131 11.9648 23.2759 12.1179 23.1387 12.271C22.9711 12.4853 22.8186 12.715 22.6509 12.9446C22.4528 13.2202 22.2699 13.4958 22.087 13.7866C21.9345 14.0316 21.8126 14.3072 21.6754 14.5674C21.5382 14.8277 21.401 15.1033 21.2791 15.3788C21.1571 15.6544 21.0657 15.9453 20.959 16.2209C20.8523 16.5118 20.7456 16.7873 20.6693 17.0935C20.5779 17.415 20.5017 17.7518 20.4407 18.0886C20.395 18.3336 20.334 18.5939 20.2883 18.8388C20.2273 19.2369 20.1968 19.6349 20.1663 20.033C20.1663 20.232 20.1206 20.431 20.1206 20.63C20.1053 21.2424 20.1206 21.8701 20.1816 22.4978C20.1816 22.6509 20.2273 22.7887 20.2425 22.9418C20.3035 23.4164 20.3797 23.891 20.4864 24.3503C20.5322 24.5646 20.5779 24.7636 20.6389 24.978C20.7151 25.2536 20.7913 25.5444 20.8827 25.82C20.959 26.0497 21.0352 26.264 21.1114 26.4936C21.1876 26.708 21.2791 26.9376 21.3705 27.152C21.462 27.3816 21.5687 27.6112 21.6906 27.8409C21.7821 28.0399 21.8735 28.2236 21.9803 28.4227C22.1022 28.6523 22.2241 28.8666 22.3613 29.0963C22.468 29.28 22.5747 29.4637 22.6967 29.6321C22.8339 29.8464 22.9863 30.0455 23.1235 30.2598C23.2454 30.4435 23.3826 30.6119 23.5198 30.7956C23.6722 30.9794 23.8247 31.1631 23.9771 31.3315C24.1448 31.5305 24.3125 31.7142 24.4801 31.8979C24.6173 32.051 24.7697 32.1888 24.9222 32.3419C25.1508 32.5563 25.3795 32.7859 25.6081 32.9849C25.7453 33.1074 25.8977 33.2299 26.0349 33.337C26.4312 33.6585 26.8428 33.9647 27.2544 34.2403C27.3458 34.3016 27.4221 34.3628 27.5135 34.424C27.5897 34.47 27.6812 34.5159 27.7574 34.5771C28.047 34.7455 28.3366 34.9139 28.6263 35.067C28.7482 35.1283 28.8701 35.1895 28.9921 35.2507C29.2817 35.3885 29.5561 35.511 29.861 35.6335C29.9677 35.6794 30.0744 35.7253 30.1963 35.7713C30.5926 35.9244 31.0042 36.0622 31.4158 36.1846C31.4767 36.1999 31.5377 36.2153 31.5987 36.2306C31.9493 36.3224 32.2999 36.4143 32.6657 36.4755C32.8029 36.5061 32.9401 36.5214 33.062 36.5368C33.3669 36.5827 33.687 36.6286 33.9918 36.6592C34.129 36.6592 34.251 36.6899 34.3882 36.6899C34.8302 36.7205 35.257 36.7358 35.6991 36.7205C38.3819 36.6439 40.8055 35.8019 42.8176 34.4087L37.2539 38.2821C35.2418 39.6752 32.8181 40.5173 30.1353 40.5938C29.6933 40.5938 29.2512 40.5938 28.8244 40.5632C28.6872 40.5632 28.5653 40.5326 28.4281 40.5326C28.108 40.502 27.8031 40.4713 27.4983 40.4101C27.3611 40.3948 27.2239 40.3642 27.1019 40.3489C26.7361 40.2723 26.3855 40.1958 26.0349 40.1039C25.974 40.0886 25.913 40.0733 25.852 40.058C25.4404 39.9355 25.0441 39.7977 24.6326 39.6446C24.5259 39.5987 24.4192 39.5528 24.2972 39.5068C24.0076 39.3843 23.718 39.2619 23.4283 39.1241C23.3064 39.0628 23.1845 39.0016 23.0625 38.9404C22.7729 38.7873 22.468 38.6189 22.1937 38.4505C22.1174 38.4045 22.026 38.3586 21.9498 38.2974C21.9193 38.2821 21.904 38.2667 21.8735 38.2514C21.8126 38.2055 21.7516 38.1596 21.6906 38.1136C21.2638 37.8381 20.8675 37.5319 20.4712 37.2104C20.4102 37.1491 20.334 37.1185 20.2578 37.0573C20.1816 36.996 20.1053 36.9195 20.0291 36.8583C19.7852 36.6439 19.5566 36.4296 19.3432 36.2153C19.2517 36.1234 19.145 36.0468 19.0536 35.955C18.9926 35.8938 18.9469 35.8325 18.9011 35.7713C18.7335 35.5876 18.5658 35.4038 18.3981 35.2048C18.2914 35.0823 18.1847 34.9752 18.078 34.8527C18.0323 34.7915 17.9865 34.7302 17.9408 34.669C17.8036 34.5006 17.6817 34.3169 17.5597 34.1485C17.4683 34.0107 17.3616 33.8882 17.2701 33.7504C17.2244 33.6739 17.1787 33.5973 17.1329 33.5208C17.0262 33.3524 16.9043 33.1686 16.7976 32.9849C16.7214 32.8471 16.6299 32.7247 16.5537 32.6022C16.508 32.5103 16.4622 32.4032 16.4165 32.3113C16.3098 32.1276 16.2183 31.9286 16.1269 31.7295C16.0659 31.6071 16.0049 31.4846 15.944 31.3621C15.8982 31.2549 15.8525 31.1478 15.8068 31.0253C15.7153 30.811 15.6239 30.5966 15.5476 30.367C15.5019 30.2445 15.4562 30.1373 15.4105 30.0149C15.38 29.9077 15.3495 29.8005 15.319 29.6934C15.2275 29.4178 15.1513 29.1422 15.0751 28.8513C15.0446 28.7288 14.9989 28.6064 14.9684 28.4686C14.9532 28.392 14.9379 28.3002 14.9227 28.2236C14.816 27.7643 14.7398 27.2897 14.6788 26.8151C14.6788 26.7233 14.6483 26.6314 14.6331 26.5396C14.6331 26.4783 14.6331 26.4324 14.6178 26.3712C14.5568 25.7435 14.5416 25.1158 14.5568 24.5034V24.4881Z" fill="#269B56"/>
<path d="M33.0466 42.5996C16.5383 43.0742 4.28278 55.4444 5.66991 70.2182L65.4535 68.4882C64.0664 53.7144 49.5549 42.125 33.0466 42.5996Z" fill="url(#paint1_linear_1_1734)"/>
<path d="M0.0152383 71.9937C0.0152383 71.6416 0.0152383 71.2741 0.0152383 70.922C0.0152383 70.723 0.0304823 70.524 0.0457263 70.3249C0.0609683 70.0034 0.0914544 69.6819 0.121941 69.3604C0.137183 69.1614 0.167669 68.9471 0.198155 68.7481C0.213399 68.595 0.228645 68.4572 0.243889 68.3041C0.243889 68.2275 0.274373 68.151 0.289615 68.0744C0.426804 67.263 0.579238 66.4669 0.792642 65.6708C0.792642 65.6249 0.792636 65.5943 0.823123 65.5483C0.884096 65.3187 0.960317 65.0891 1.03653 64.8594C1.0975 64.6604 1.15847 64.446 1.23469 64.247C1.34139 63.9408 1.44809 63.6499 1.57004 63.3438C1.64625 63.16 1.70723 62.9763 1.78344 62.7926C1.92063 62.4405 2.0883 62.1037 2.24074 61.7669C2.30171 61.6444 2.36268 61.5066 2.42366 61.3841C2.6523 60.9248 2.88095 60.4808 3.14008 60.0369C3.14008 60.0369 3.14008 60.0369 3.14008 60.0216C3.41446 59.547 3.70408 59.0724 4.00894 58.6131C4.1004 58.4753 4.19186 58.3528 4.28332 58.215C4.51196 57.8935 4.74061 57.572 4.96926 57.2658C4.9845 57.2352 4.99974 57.2199 5.03023 57.1893C5.06072 57.1433 5.10645 57.1127 5.13693 57.0668C5.70093 56.3472 6.29541 55.6583 6.95086 55C6.95086 55 6.98135 54.9694 6.9966 54.9541C6.9966 54.9541 6.9966 54.9541 7.01184 54.9541C7.59108 54.3723 8.2008 53.8212 8.84102 53.2853C8.91723 53.2241 8.96296 53.1628 9.03918 53.1016C9.10015 53.0557 9.16112 53.0097 9.22209 52.9638C9.74036 52.5505 10.2586 52.1371 10.8074 51.7697L16.3711 47.8963C15.8224 48.2791 15.3041 48.6771 14.7858 49.0905C14.6639 49.1976 14.5419 49.3048 14.4048 49.412C13.7645 49.9478 13.1548 50.499 12.5756 51.0807C12.5603 51.096 12.5451 51.1267 12.5146 51.142C11.8744 51.8003 11.2647 52.4892 10.7007 53.2088C10.655 53.27 10.594 53.3312 10.5482 53.4078C10.3044 53.7293 10.0757 54.0508 9.84706 54.3723C9.7556 54.4948 9.66414 54.6173 9.57269 54.755C9.26782 55.2143 8.9782 55.6889 8.70383 56.1635C8.44469 56.6075 8.2008 57.0668 7.97216 57.5261C7.91118 57.6486 7.85021 57.7864 7.80448 57.9088C7.63681 58.2456 7.48438 58.5825 7.34719 58.9346C7.27097 59.1183 7.21 59.302 7.13379 59.4857C7.01184 59.7919 6.90514 60.0828 6.79843 60.389C6.72222 60.588 6.67649 60.8024 6.60027 61.0014C6.52406 61.2616 6.4326 61.5372 6.35638 61.8128C6.14298 62.5936 5.97531 63.405 5.85336 64.2164C5.82288 64.446 5.77715 64.6604 5.74666 64.89C5.71617 65.0891 5.70093 65.3034 5.67044 65.5024C5.63995 65.8239 5.60947 66.1454 5.59423 66.4516C5.59423 66.6506 5.56374 66.8497 5.56374 67.0487C5.56374 67.4008 5.56374 67.7529 5.56374 68.105C5.56374 68.2735 5.56374 68.4419 5.56374 68.6103C5.56374 69.1308 5.60947 69.6666 5.6552 70.2025L0.0914525 74.0758C0.0457243 73.54 0.0152421 73.0041 -1.91411e-06 72.4836C-1.91411e-06 72.3152 -1.91411e-06 72.1468 -1.91411e-06 71.9784L0.0152383 71.9937Z" fill="#269B56"/>
<path d="M5.6703 70.2181L0.106555 74.0915L59.8901 72.3462L65.4539 68.4881L5.6703 70.2181Z" fill="#1C653A"/>
<path d="M67.4225 3.2393C57.4776 3.53135 50.2274 12.0983 51.1967 22.3981C52.1659 32.6979 60.9865 40.7781 70.9314 40.4861C80.8763 40.194 88.1265 31.627 87.1766 21.3467C86.2267 11.0664 77.3674 2.96671 67.4225 3.2393Z" fill="url(#paint2_linear_1_1734)"/>
<path d="M44.0632 24.9486C44.0632 24.6955 44.102 24.4424 44.1214 24.1893C44.1601 23.7609 44.1601 23.3326 44.2183 22.9237C44.2183 22.8263 44.2571 22.7484 44.2765 22.6511C44.3346 22.3201 44.3928 22.0086 44.4703 21.697C44.5285 21.3855 44.5866 21.0545 44.6642 20.7625C44.6836 20.6457 44.7417 20.5483 44.7611 20.4509C44.8774 20.081 44.9937 19.7111 45.1294 19.3411C45.2651 18.9712 45.3815 18.6207 45.5365 18.2703C45.6916 17.9198 45.8661 17.5888 46.0406 17.2383C46.1569 17.0047 46.2732 16.7321 46.3895 16.4985C46.4477 16.4011 46.5058 16.3232 46.564 16.2454C46.7772 15.8754 47.0292 15.525 47.2813 15.194C47.4363 14.9798 47.5527 14.7461 47.7077 14.5514C47.7659 14.4736 47.8434 14.4151 47.9016 14.3373C48.0567 14.1426 48.2505 13.9479 48.425 13.7532C48.6189 13.539 48.7933 13.3053 49.0066 13.0912C49.1229 12.9743 49.2586 12.877 49.3749 12.7602C49.53 12.6044 49.7045 12.4681 49.8596 12.3123C49.9953 12.1955 50.131 12.0592 50.2667 11.9229C50.6156 11.6504 50.9646 11.3778 51.3329 11.1247L58.4087 6.19867C57.8853 6.5686 57.4006 6.95801 56.9354 7.38636C56.7609 7.54212 56.6058 7.67841 56.4507 7.83417C56.1212 8.1457 55.811 8.47669 55.5008 8.82716C55.3263 9.02186 55.1519 9.21657 54.9774 9.41127C54.7642 9.68386 54.5703 9.97591 54.3571 10.268C54.105 10.6184 53.8724 10.9689 53.6398 11.3388C53.4459 11.6504 53.2908 12.0008 53.1164 12.3318C52.9419 12.6628 52.7674 13.0133 52.6123 13.3637C52.4573 13.7142 52.3409 14.0842 52.2052 14.4346C52.0695 14.8046 51.9338 15.155 51.8369 15.5444C51.7206 15.9533 51.6237 16.3816 51.5461 16.81C51.488 17.1215 51.4104 17.4525 51.3523 17.764C51.2747 18.2703 51.236 18.7765 51.1972 19.2827C51.1972 19.5358 51.139 19.789 51.139 20.0421C51.1196 20.8209 51.139 21.6192 51.2166 22.4175C51.2166 22.6122 51.2747 22.7874 51.2941 22.9821C51.3717 23.5857 51.4686 24.1893 51.6043 24.7734C51.6624 25.0459 51.7206 25.2991 51.7981 25.5716C51.8951 25.9221 51.992 26.292 52.1083 26.6425C52.2052 26.9346 52.3022 27.2072 52.3991 27.4992C52.496 27.7718 52.6123 28.0639 52.7287 28.3364C52.845 28.6285 52.9807 28.9205 53.1358 29.2126C53.2521 29.4657 53.3684 29.6994 53.5041 29.9525C53.6592 30.2445 53.8143 30.5171 53.9887 30.8092C54.1244 31.0428 54.2601 31.2765 54.4152 31.4906C54.5897 31.7632 54.7835 32.0163 54.958 32.2889C55.1131 32.5226 55.2876 32.7367 55.462 32.9704C55.6559 33.204 55.8498 33.4377 56.0436 33.6518C56.2569 33.9049 56.4701 34.1386 56.6834 34.3722C56.8578 34.5669 57.0517 34.7422 57.2455 34.9369C57.5363 35.2095 57.8271 35.5015 58.1179 35.7546C58.2924 35.9104 58.4862 36.0662 58.6607 36.2024C59.1647 36.6113 59.6881 37.0007 60.2116 37.3512C60.3279 37.4291 60.4248 37.507 60.5411 37.5848C60.638 37.6433 60.7544 37.7017 60.8513 37.7795C61.2196 37.9937 61.5879 38.2079 61.9563 38.4026C62.1114 38.4805 62.2664 38.5584 62.4215 38.6362C62.7899 38.8115 63.1388 38.9672 63.5265 39.123C63.6622 39.1814 63.7979 39.2398 63.953 39.2982C64.457 39.4929 64.9805 39.6682 65.5039 39.8239C65.5814 39.8434 65.659 39.8629 65.7365 39.8823C66.1824 39.9992 66.6282 40.116 67.0935 40.1939C67.268 40.2328 67.4424 40.2523 67.5975 40.2717C67.9852 40.3302 68.3923 40.3886 68.7801 40.4275C68.9545 40.4275 69.1096 40.4665 69.2841 40.4665C69.8463 40.5054 70.3891 40.5249 70.9513 40.5054C74.3632 40.408 77.4455 39.3372 80.0044 37.5654L72.9286 42.4914C70.3697 44.2632 67.2874 45.334 63.8755 45.4314C63.3133 45.4314 62.7511 45.4314 62.2083 45.3924C62.0338 45.3924 61.8787 45.3535 61.7043 45.3535C61.2972 45.3146 60.9094 45.2756 60.5217 45.1977C60.3473 45.1783 60.1728 45.1393 60.0177 45.1199C59.5524 45.0225 59.1066 44.9252 58.6607 44.8083C58.5832 44.7889 58.5056 44.7694 58.4281 44.7499C57.9047 44.5942 57.4006 44.4189 56.8772 44.2242C56.7415 44.1658 56.6058 44.1074 56.4507 44.049C56.0824 43.8932 55.7141 43.7375 55.3457 43.5622C55.1906 43.4843 55.0356 43.4065 54.8805 43.3286C54.5121 43.1339 54.1244 42.9197 53.7755 42.7055C53.6786 42.6471 53.5622 42.5887 53.4653 42.5108C53.4265 42.4914 53.4072 42.4719 53.3684 42.4524C53.2908 42.394 53.2133 42.3356 53.1358 42.2772C52.593 41.9267 52.0889 41.5373 51.5849 41.1284C51.5074 41.0506 51.4104 41.0116 51.3135 40.9337C51.2166 40.8559 51.1196 40.7585 51.0227 40.6806C50.7125 40.408 50.4217 40.1355 50.1503 39.8629C50.034 39.746 49.8983 39.6487 49.782 39.5319C49.7045 39.454 49.6463 39.3761 49.5882 39.2982C49.3749 39.0646 49.1617 38.8309 48.9484 38.5778C48.8127 38.4221 48.677 38.2858 48.5413 38.13C48.4832 38.0521 48.425 37.9742 48.3669 37.8964C48.1924 37.6822 48.0373 37.4485 47.8822 37.2344C47.7659 37.0591 47.6302 36.9034 47.5139 36.7281C47.4557 36.6308 47.3976 36.5334 47.3394 36.4361C47.2037 36.2219 47.0486 35.9883 46.9129 35.7546C46.816 35.5794 46.6997 35.4236 46.6028 35.2679C46.5446 35.1511 46.4864 35.0148 46.4283 34.8979C46.2926 34.6643 46.1763 34.4112 46.06 34.1581C45.9824 34.0023 45.9049 33.8465 45.8273 33.6908C45.7692 33.5545 45.711 33.4182 45.6529 33.2624C45.5365 32.9898 45.4202 32.7173 45.3233 32.4252C45.2651 32.2694 45.207 32.1331 45.1488 31.9774C45.11 31.8411 45.0713 31.7048 45.0325 31.5685C44.9162 31.218 44.8193 30.8676 44.7223 30.4976C44.6836 30.3419 44.6254 30.1861 44.5866 30.0109C44.5673 29.9135 44.5479 29.7967 44.5285 29.6994C44.3928 29.1152 44.2958 28.5117 44.2183 27.9081C44.2183 27.7913 44.1795 27.6744 44.1602 27.5576C44.1602 27.4797 44.1602 27.4213 44.1408 27.3434C44.0632 26.5452 44.0438 25.7469 44.0632 24.9681V24.9486Z" fill="#269B56"/>
<path d="M67.5781 47.9823C46.5833 48.5859 30.9971 64.3179 32.7612 83.1068L108.792 80.9067C107.028 62.1178 88.5728 47.3788 67.5781 47.9823Z" fill="url(#paint3_linear_1_1734)"/>
<path d="M25.5698 85.3646C25.5698 84.9168 25.5698 84.4495 25.5698 84.0017C25.5698 83.7486 25.5892 83.4954 25.6086 83.2423C25.628 82.8334 25.6668 82.4246 25.7055 82.0157C25.7249 81.7626 25.7637 81.49 25.8025 81.2369C25.8218 81.0422 25.8412 80.8669 25.8606 80.6722C25.8606 80.5749 25.8994 80.4775 25.9188 80.3802C26.0932 79.3483 26.2871 78.3358 26.5585 77.3233C26.5585 77.2649 26.5585 77.226 26.5973 77.1676C26.6748 76.8755 26.7718 76.5835 26.8687 76.2914C26.9462 76.0383 27.0238 75.7657 27.1207 75.5126C27.2564 75.1232 27.3921 74.7533 27.5472 74.3638C27.6441 74.1302 27.7217 73.8966 27.8186 73.6629C27.9931 73.2151 28.2063 72.7868 28.4002 72.3584C28.4777 72.2026 28.5552 72.0274 28.6328 71.8717C28.9236 71.2875 29.2144 70.7229 29.5439 70.1583C29.5439 70.1583 29.5439 70.1583 29.5439 70.1388C29.8929 69.5352 30.2612 68.9316 30.6489 68.3475C30.7652 68.1723 30.8815 68.0165 30.9978 67.8413C31.2886 67.4324 31.5794 67.0235 31.8702 66.6341C31.8896 66.5952 31.909 66.5757 31.9477 66.5368C31.9865 66.4784 32.0447 66.4394 32.0834 66.381C32.8007 65.4659 33.5568 64.5897 34.3904 63.7525C34.3904 63.7525 34.4291 63.7136 34.4485 63.6941C34.4485 63.6941 34.4485 63.6941 34.4679 63.6941C35.2046 62.9542 35.98 62.2533 36.7942 61.5718C36.8911 61.494 36.9493 61.4161 37.0462 61.3382C37.1237 61.2798 37.2013 61.2214 37.2788 61.163C37.9379 60.6373 38.5971 60.1116 39.295 59.6443L46.3707 54.7183C45.6729 55.205 45.0137 55.7113 44.3546 56.237C44.1995 56.3733 44.0445 56.5096 43.87 56.6459C43.0558 57.3273 42.2804 58.0282 41.5437 58.7681C41.5243 58.7876 41.5049 58.8265 41.4662 58.846C40.652 59.6832 39.8765 60.5594 39.1593 61.4745C39.1011 61.5524 39.0235 61.6303 38.9654 61.7276C38.6552 62.1365 38.3644 62.5454 38.0736 62.9542C37.9573 63.11 37.841 63.2658 37.7247 63.441C37.337 64.0251 36.9687 64.6287 36.6197 65.2323C36.2902 65.7969 35.98 66.381 35.6892 66.9651C35.6117 67.1209 35.5341 67.2961 35.476 67.4519C35.2627 67.8802 35.0689 68.3086 34.8944 68.7564C34.7975 68.99 34.7199 69.2237 34.623 69.4573C34.4679 69.8467 34.3322 70.2167 34.1965 70.6061C34.0996 70.8592 34.0414 71.1318 33.9445 71.3849C33.8476 71.7159 33.7312 72.0664 33.6343 72.4168C33.3629 73.4098 33.1497 74.4417 32.9946 75.4737C32.9558 75.7657 32.8977 76.0383 32.8589 76.3304C32.8201 76.5835 32.8007 76.8561 32.7619 77.1092C32.7232 77.518 32.6844 77.9269 32.665 78.3163C32.665 78.5694 32.6262 78.8226 32.6262 79.0757C32.6262 79.5235 32.6262 79.9713 32.6262 80.4191C32.6262 80.6333 32.6262 80.8475 32.6262 81.0616C32.6262 81.7236 32.6844 82.4051 32.7426 83.0866L25.6668 88.0126C25.6086 87.3311 25.5698 86.6496 25.5505 85.9876C25.5505 85.7735 25.5505 85.5593 25.5505 85.3451L25.5698 85.3646Z" fill="#269B56"/>
<path d="M32.7616 83.1067L25.6858 88.0327L101.717 85.8131L108.793 80.9065L32.7616 83.1067Z" fill="#1C653A"/>
<path d="M21.1617 31.3693C21.1617 31.3693 20.558 33.7177 20.5635 34.2838C20.569 34.85 20.1976 35.9111 21.7262 36.5319C21.7262 36.5319 23.5026 37.1769 23.9898 37.2315C23.9898 37.2315 22.1212 36.7761 21.6074 36.7765C21.0935 36.7769 20.0734 36.6459 19.3946 38.7548L18.7487 41.0712C18.7487 41.0712 19.3205 38.6171 19.3528 38.1184C19.385 37.6198 19.6678 36.4323 18.0546 35.8489L16.0444 35.2331C16.0444 35.2331 17.6704 35.6875 18.6523 35.6683C19.6343 35.6491 20.3528 34.5293 21.1617 31.3693Z" fill="#33B568" stroke="#33B568" stroke-width="0.49391" stroke-miterlimit="10"/>
<circle cx="38.4789" cy="1.1257" r="1.1257" fill="white"/>
<circle cx="25.5365" cy="57.9996" r="1.1257" fill="#33B568"/>
<circle cx="33.1031" cy="95.4537" r="1.1257" fill="white"/>
<circle cx="108.374" cy="73.1637" r="0.625548" fill="white"/>
<circle cx="78.6244" cy="1.8284" r="1.81909" fill="#33B568"/>
<path d="M91.7947 9.52698C91.7947 9.52698 90.4712 14.6757 90.4832 15.9169C90.4952 17.1581 89.6811 19.4847 93.0323 20.8455C93.0323 20.8455 96.9268 22.2596 97.9951 22.3794C97.9951 22.3794 93.8983 21.3809 92.7718 21.3819C91.6453 21.3828 89.4086 21.0956 87.9204 25.719L86.5045 30.7976C86.5045 30.7976 87.7581 25.4172 87.8288 24.3239C87.8994 23.2306 88.5195 20.6273 84.9827 19.3481L80.5755 17.998C80.5755 17.998 84.1404 18.9943 86.2932 18.9522C88.4459 18.9101 90.0213 16.4552 91.7947 9.52698Z" fill="white" stroke="white" stroke-width="0.49391" stroke-miterlimit="10"/>
<defs>
<linearGradient id="paint0_linear_1_1734" x1="34.1883" y1="8.20956" x2="34.1883" y2="36.7107" gradientUnits="userSpaceOnUse">
<stop offset="0.4375" stop-color="#D4F938"/>
<stop offset="1" stop-color="#32D875" stop-opacity="0.96"/>
</linearGradient>
<linearGradient id="paint1_linear_1_1734" x1="35.2515" y1="43.3374" x2="35.2515" y2="70.2179" gradientUnits="userSpaceOnUse">
<stop offset="0.4375" stop-color="#D4F938"/>
<stop offset="1" stop-color="#32D875" stop-opacity="0.96"/>
</linearGradient>
<linearGradient id="paint2_linear_1_1734" x1="69.0301" y1="4.24638" x2="69.0301" y2="40.4933" gradientUnits="userSpaceOnUse">
<stop offset="0.4375" stop-color="#D4F938"/>
<stop offset="1" stop-color="#32D875" stop-opacity="0.96"/>
</linearGradient>
<linearGradient id="paint3_linear_1_1734" x1="70.3822" y1="48.9206" x2="70.3822" y2="83.1064" gradientUnits="userSpaceOnUse">
<stop offset="0.4375" stop-color="#D4F938"/>
<stop offset="1" stop-color="#32D875" stop-opacity="0.96"/>
</linearGradient>
</defs>
</svg>
