<svg width="17" height="21" viewBox="0 0 17 21" fill="none" xmlns="http://www.w3.org/2000/svg">
<path d="M10.942 0.035635C10.942 0.035635 9.65622 5.03088 9.66788 6.23512C9.67954 7.43936 8.88854 9.69659 12.1444 11.0169C12.1444 11.0169 15.9281 12.3889 16.9659 12.5051C16.9659 12.5051 12.9857 11.5364 11.8913 11.5373C10.7969 11.5382 8.62388 11.2595 7.17804 15.7452L5.80238 20.6724C5.80238 20.6724 7.02032 15.4524 7.08898 14.3916C7.15765 13.3309 7.76007 10.8052 4.32396 9.56409L0.042169 8.25426C0.042169 8.25426 3.50566 9.22081 5.59712 9.17999C7.68859 9.13917 9.21914 6.75738 10.942 0.035635Z" fill="#33B568" stroke="#33B568" stroke-width="0.277825" stroke-miterlimit="10"/>
</svg>
